<?xml version="1.0" standalone="no"?><!DOCTYPE svg PUBLIC "-//W3C//DTD SVG 1.1//EN" "http://www.w3.org/Graphics/SVG/1.1/DTD/svg11.dtd" ><svg xmlns="http://www.w3.org/2000/svg"><metadata></metadata><defs><font id="RaphLevien,KirillTkachev(cyreal.org): Inconsolata Regular: 2012" horiz-adv-x="500"><font-face font-family="Inconsolata" font-weight="400" font-stretch="normal" units-per-em="1000" panose-1="2 11 6 9 3 0 3 0 0 0" ascent="859" descent="-190" x-height="0" bbox="0 -177 509 834" underline-thickness="50" underline-position="-175" unicode-range="U+0020-f40a" /><missing-glyph horiz-adv-x="500"  /><glyph glyph-name="space" unicode=" " d="" /><glyph glyph-name="exclam" unicode="!" d="M281 89 q18 -18 18 -42 q0 -23 -18 -40.5 q-18 -17.5 -42 -17.5 q-24 0 -41.5 17 q-17.5 17 -17.5 41 q0 24 17.5 42 q17.5 18 41.5 18 q24 0 42 -18 ZM241 668 q23 0 37 -19.5 q14 -19.5 14 -64.5 q0 -11 -1 -26.5 q-1 -15.5 -3 -35.5 l-5 -52 l-18 -276 l-50 0 l-15 276 q-1 16 -2.5 33.5 q-1.5 17.5 -3 34 q-1.5 16.5 -3 31.5 q-1.5 15 -1.5 25 q0 35 13.5 54.5 q13.5 19.5 37.5 19.5 Z" /><glyph glyph-name="quotedbl" unicode="&quot;" d="M315 548 l-6 63 q0 28 13 41.5 q13 13.5 30 13.5 q17 0 31 -15 q14 -15 14 -48 q0 -31 -34 -125 l-24 -66 l-55 13 l22 68 q9 30 9 55 ZM143 548 l-7 63 q0 28 13 41.5 q13 13.5 30 13.5 q17 0 31 -15 q14 -15 14 -48 q0 -34 -33 -125 l-24 -66 l-56 13 l22 68 q5 15 7.5 28.5 q2.5 13.5 2.5 26.5 Z" /><glyph glyph-name="numbersign" unicode="#" d="M173 624 l61 2 l-21 -171 l110 0 l20 167 l62 1 l-20 -166 l91 0 l-6 -47 l-91 0 l-21 -169 l99 0 l-5 -45 l-99 0 l-22 -182 l-61 -4 l22 183 l-111 0 l-21 -179 l-59 -1 l21 178 l-97 0 l4 45 l99 0 l20 171 l-109 0 l3 46 l111 0 l20 171 ZM207 408 l-20 -170 l110 0 l21 170 l-111 0 Z" /><glyph glyph-name="dollar" unicode="$" d="M235 651 l64 0 q1 -1 1 -3 q0 -2 -3 -6.5 q-3 -4.5 -4 -11.5 l0 -38 q94 -11 149 -77 l-43 -54 q-5 2 -5.5 9 q-0.5 7 -5.5 12 q-35 41 -95 51 l0 -193 q43 -14 74.5 -29 q31.5 -15 52 -33.5 q20.5 -18.5 30.5 -42 q10 -23.5 10 -54.5 q0 -29 -11.5 -56 q-11.5 -27 -33 -49.5 q-21.5 -22.5 -52.5 -38.5 q-31 -16 -70 -21 l0 -63 l-58 0 l0 61 q-108 8 -175 80 l43 60 q4 -3 4 -10 q0 -7 3 -11 q50 -54 125 -61 l0 220 q-78 26 -117 62.5 q-39 36.5 -39 91.5 q0 27 11.5 51.5 q11.5 24.5 32 43.5 q20.5 19 49 32 q28.5 13 63.5 18 l0 60 ZM293 273 l0 -199 q48 9 75 38.5 q27 29.5 27 64.5 q0 36 -24 57.5 q-24 21.5 -78 38.5 ZM235 361 l0 173 q-45 -5 -67.5 -28 q-22.5 -23 -22.5 -52 q0 -57 90 -93 Z" /><glyph glyph-name="percent" unicode="%" d="M391 623 l67 0 l-348 -623 l-64 0 l345 623 ZM28 504 q0 27 9 51 q9 24 24 41.5 q15 17.5 35.5 27.5 q20.5 10 43.5 10 q23 0 43.5 -10 q20.5 -10 35.5 -28 q15 -18 24 -42 q9 -24 9 -51 q0 -57 -32 -93.5 q-32 -36.5 -80 -36.5 q-23 0 -43.5 10 q-20.5 10 -35.5 27.5 q-15 17.5 -24 41.5 q-9 24 -9 52 ZM189 504 q0 43 -16 60.5 q-16 17.5 -35 17.5 q-18 0 -33.5 -17.5 q-15.5 -17.5 -15.5 -60.5 q0 -42 16 -60 q16 -18 35 -18 q19 0 34 17.5 q15 17.5 15 60.5 ZM371 249 q23 0 43.5 -10 q20.5 -10 35.5 -28 q15 -18 23.5 -41.5 q8.5 -23.5 8.5 -50.5 q0 -27 -9 -51 q-9 -24 -24 -41 q-15 -17 -35 -27 q-20 -10 -43 -10 q-23 0 -43.5 10 q-20.5 10 -35.5 27 q-15 17 -24 41 q-9 24 -9 51 q0 27 9 51 q9 24 24 41.5 q15 17.5 35.5 27.5 q20.5 10 43.5 10 ZM406 179 q-17 19 -36 19 q-20 0 -36 -18 q-16 -18 -16 -60 q0 -43 17 -61.5 q17 -18.5 37 -18.5 q20 0 35.5 19 q15.5 19 15.5 59 q0 41 -17 61 Z" /><glyph glyph-name="ampersand" unicode="&amp;" d="M413 262 l-1 12 q0 6 4 10 l65 -45 q-34 -60 -76 -116 l70 -91 l-59 -44 l-55 88 q-31 -39 -75.5 -62.5 q-44.5 -23.5 -93.5 -23.5 q-34 0 -62.5 12 q-28.5 12 -49.5 32.5 q-21 20.5 -32.5 48 q-11.5 27.5 -11.5 58.5 q0 63 34.5 116.5 q34.5 53.5 91.5 85.5 q-71 86 -71 155 q0 28 11 52 q11 24 29.5 41.5 q18.5 17.5 43.5 27.5 q25 10 53 10 q30 0 55 -11 q25 -11 43 -29.5 q18 -18.5 27.5 -42 q9.5 -23.5 9.5 -48.5 q0 -25 -8 -50 q-8 -25 -22.5 -47.5 q-14.5 -22.5 -34 -41 q-19.5 -18.5 -43.5 -29.5 l112 -157 q14 17 28.5 42 q14.5 25 17.5 47 ZM160 497 q0 -48 61 -124 q36 17 56 51.5 q20 34.5 20 67.5 q0 33 -20.5 55.5 q-20.5 22.5 -47.5 22.5 q-28 0 -48.5 -20 q-20.5 -20 -20.5 -53 ZM197 296 q-40 -25 -62.5 -65 q-22.5 -40 -22.5 -79 q0 -21 7 -38.5 q7 -17.5 19 -31 q12 -13.5 27.5 -21 q15.5 -7.5 33.5 -7.5 q16 0 33 5 q17 5 31.5 12.5 q14.5 7.5 26.5 17 q12 9.5 19 17.5 l15 17 l-127 173 Z" /><glyph glyph-name="quotesingle" unicode="&#39;" d="M238 548 l-7 63 q0 28 13 41.5 q13 13.5 30 13.5 q17 0 31 -15 q14 -15 14 -48 q-1 -17 -8.5 -48 q-7.5 -31 -24.5 -77 l-25 -66 l-55 13 l22 68 q5 15 7.5 28.5 q2.5 13.5 2.5 26.5 Z" /><glyph glyph-name="parenleft" unicode="(" d="M414 603 l-11 1 q-3 0 -9 -3 q-88 -52 -137 -141.5 q-49 -89.5 -49 -203.5 q0 -56 15 -110.5 q15 -54.5 43 -104 q28 -49.5 68.5 -91 q40.5 -41.5 90.5 -70.5 l-32 -53 q-60 31 -107 76.5 q-47 45.5 -79.5 101.5 q-32.5 56 -50 120.5 q-17.5 64.5 -17.5 132.5 q0 68 17.5 130.5 q17.5 62.5 50.5 116 q33 53.5 79.5 94.5 q46.5 41 105.5 67 l30 -61 q-6 -2 -8 -2 Z" /><glyph glyph-name="parenright" unicode=")" d="M78 603 l19 62 q60 -28 110 -71.5 q50 -43.5 84.5 -98 q34.5 -54.5 53.5 -117 q19 -62.5 19 -128.5 q0 -67 -19.5 -130.5 q-19.5 -63.5 -55 -119 q-35.5 -55.5 -86 -100.5 q-50.5 -45 -112.5 -74 l-19 60 q51 27 91.5 65.5 q40.5 38.5 69.5 86 q29 47.5 44.5 100.5 q15.5 53 15.5 109 q0 56 -15.5 109 q-15.5 53 -43.5 99 q-28 46 -68 84 q-40 38 -88 64 Z" /><glyph glyph-name="asterisk" unicode="*" d="M213 519 l81 0 q-1 -6 -3 -13.5 q-2 -7.5 -3 -13.5 l-15 -150 l159 72 l26 -61 l-171 -52 l126 -151 l-55 -43 l-108 166 l-112 -167 l-54 44 l130 150 l-173 53 l26 65 l162 -76 l-16 177 Z" /><glyph glyph-name="plus" unicode="+" d="M222 523 l63 0 l0 -171 l171 0 l0 -61 l-171 0 l0 -187 l-63 0 l0 187 l-177 0 l0 61 l177 0 l0 171 Z" /><glyph glyph-name="comma" unicode="," d="M306 20 q0 -79 -107 -188 l-34 30 q28 26 46.5 56 q18.5 30 18.5 49 q0 10 -8 18.5 q-8 8.5 -17.5 16.5 q-9.5 8 -17.5 18.5 q-8 10.5 -8 23.5 q0 25 16.5 42 q16.5 17 42.5 17 q26 0 47 -23 q21 -23 21 -60 Z" /><glyph glyph-name="hyphen" unicode="-" d="M71 348 l360 0 l0 -67 l-360 0 l0 67 Z" /><glyph glyph-name="period" unicode="." d="M280 87 q18 -18 18 -41 q0 -23 -17.5 -40 q-17.5 -17 -42.5 -17 q-25 0 -42 16.5 q-17 16.5 -17 40.5 q0 24 18 41 q18 17 41 17 q23 0 42 -17 Z" /><glyph glyph-name="slash" unicode="/" d="M64 -13 l313 678 l60 -31 l-314 -676 l-59 29 Z" /><glyph glyph-name="zero" unicode="0" d="M386 544 q29 -39 46.5 -102 q17.5 -63 17.5 -141 q0 -79 -17.5 -137.5 q-17.5 -58.5 -46 -97.5 q-28.5 -39 -64.5 -58 q-36 -19 -73 -19 q-38 0 -74 23 q-36 23 -64 64.5 q-28 41.5 -44.5 100 q-16.5 58.5 -16.5 129.5 q0 71 16.5 130 q16.5 59 44.5 101.5 q28 42.5 64 66 q36 23.5 74 23.5 q78 0 137 -83 ZM349 485 q-20 40 -46 60.5 q-26 20.5 -53 20.5 q-25 0 -49.5 -18 q-24.5 -18 -43.5 -50 q-19 -32 -30.5 -78 q-11.5 -46 -11.5 -101 q0 -62 14 -118 l220 284 ZM372 418 l-220 -280 q24 -45 50.5 -65 q26.5 -20 52.5 -20 q27 0 50.5 16.5 q23.5 16.5 41 47.5 q17.5 31 28 75.5 q10.5 44.5 10.5 100.5 q0 35 -3 66 q-3 31 -10 59 Z" /><glyph glyph-name="one" unicode="1" d="M299 624 l0 -624 l-69 0 l0 537 l-126 -37 l-16 39 l163 85 l48 0 Z" /><glyph glyph-name="two" unicode="2" d="M78 526 q27 48 73.5 74.5 q46.5 26.5 100.5 26.5 q37 0 70 -13.5 q33 -13.5 58 -37.5 q25 -24 39 -56 q14 -32 14 -68 q0 -29 -8.5 -55 q-8.5 -26 -22.5 -49.5 q-14 -23.5 -32.5 -45 q-18.5 -21.5 -38.5 -39.5 l-60 -56 q-13 -12 -29 -28.5 q-16 -16.5 -31.5 -35.5 q-15.5 -19 -30.5 -40 q-15 -21 -26 -42 l261 0 q5 0 10.5 4.5 q5.5 4.5 10.5 4.5 l3 0 l0 -70 l-366 0 l0 44 q37 73 80 126 q43 53 83 89 l48 44 q25 23 40.5 42.5 q15.5 19.5 24.5 37.5 q9 18 12 34.5 q3 16.5 3 33.5 q0 22 -9 42.5 q-9 20.5 -25.5 37 q-16.5 16.5 -37 26 q-20.5 9.5 -42.5 9.5 q-26 0 -46.5 -7.5 q-20.5 -7.5 -36 -18 q-15.5 -10.5 -24.5 -22 q-9 -11.5 -10 -20.5 q-2 -9 -4 -12 l-51 40 Z" /><glyph glyph-name="three" unicode="3" d="M411 467 q0 -45 -25.5 -82 q-25.5 -37 -67.5 -53 q48 -17 77.5 -61 q29.5 -44 29.5 -100 q0 -37 -13.5 -70 q-13.5 -33 -39 -58 q-25.5 -25 -62.5 -39.5 q-37 -14.5 -84 -14.5 q-92 0 -157 71 l53 63 q4 -4 6 -13.5 q2 -9.5 7 -15.5 l14 -13 q8 -8 32.5 -18 q24.5 -10 50.5 -10 q27 0 50 10 q23 10 40 27.5 q17 17.5 26.5 41 q9.5 23.5 9.5 49.5 q0 54 -40.5 85.5 q-40.5 31.5 -106.5 31.5 q-8 0 -15.5 -0.5 q-7.5 -0.5 -15.5 -1.5 l0 56 q46 0 77 9.5 q31 9.5 50.5 25.5 q19.5 16 28 37.5 q8.5 21.5 8.5 46.5 q0 18 -8 34.5 q-8 16.5 -22 29 q-14 12.5 -34 20.5 q-20 8 -44 8 q-64 0 -107 -48 l-39 43 q61 67 149 67 q36 0 67.5 -12.5 q31.5 -12.5 54.5 -34.5 q23 -22 36.5 -50.5 q13.5 -28.5 13.5 -60.5 Z" /><glyph glyph-name="four" unicode="4" d="M313 624 l59 0 l0 -390 l80 0 l0 -62 l-80 0 l0 -172 l-73 0 l0 173 l-251 0 l0 51 l265 400 ZM300 513 l-183 -279 l183 0 l0 279 Z" /><glyph glyph-name="five" unicode="5" d="M106 623 l316 0 l0 -63 l-257 0 l-10 -179 q49 24 102 24 q40 0 74.5 -14.5 q34.5 -14.5 60 -42 q25.5 -27.5 39.5 -66 q14 -38.5 14 -86.5 q0 -48 -15 -86.5 q-15 -38.5 -41.5 -65.5 q-26.5 -27 -62 -41 q-35.5 -14 -77.5 -14 q-57 0 -105.5 25 q-48.5 25 -79.5 71 l62 46 q5 -3 5.5 -12 q0.5 -9 1.5 -11 q4 -7 14 -17 q10 -10 25.5 -19 q15.5 -9 36 -15.5 q20.5 -6.5 44.5 -6.5 q24 0 46 10.5 q22 10.5 38.5 29.5 q16.5 19 26.5 46.5 q10 27.5 10 62.5 q0 35 -10 62.5 q-10 27.5 -27.5 46.5 q-17.5 19 -40.5 29 q-23 10 -50 10 q-32 0 -63 -15.5 q-31 -15.5 -54 -43.5 l-44 18 l21 317 Z" /><glyph glyph-name="six" unicode="6" d="M287 630 q78 0 137 -57 l-49 -53 q-9 8 -12 17.5 q-3 9.5 -14 13.5 q-15 10 -30.5 13.5 q-15.5 3.5 -29.5 3.5 q-20 0 -46.5 -9.5 q-26.5 -9.5 -49.5 -35.5 q-23 -26 -39.5 -73.5 q-16.5 -47.5 -17.5 -122.5 q21 35 56.5 55 q35.5 20 75.5 20 q35 0 66 -14.5 q31 -14.5 54.5 -41.5 q23.5 -27 37 -64.5 q13.5 -37.5 13.5 -83.5 q0 -46 -14 -84.5 q-14 -38.5 -38 -66 q-24 -27.5 -56.5 -42.5 q-32.5 -15 -69.5 -15 q-47 0 -83 20.5 q-36 20.5 -60.5 58.5 q-24.5 38 -37.5 92.5 q-13 54.5 -13 122.5 q0 84 15.5 148.5 q15.5 64.5 44.5 108.5 q29 44 69.5 66.5 q40.5 22.5 90.5 22.5 ZM140 257 q-1 -6 -1 -12 q0 -6 0 -12 q0 -39 9.5 -72 q9.5 -33 26.5 -57 q17 -24 40 -38 q23 -14 49 -14 q43 0 75 37 q32 37 32 108 q0 38 -10 65 q-10 27 -25.5 44.5 q-15.5 17.5 -35 26 q-19.5 8.5 -38.5 8.5 q-36 0 -69 -24.5 q-33 -24.5 -53 -59.5 Z" /><glyph glyph-name="seven" unicode="7" d="M432 584 q-63 -144 -117.5 -289 q-54.5 -145 -100.5 -295 l-79 0 q48 143 100 281 q52 138 110 276 l-266 0 l0 66 l353 0 l0 -39 Z" /><glyph glyph-name="eight" unicode="8" d="M420 483 q0 -45 -27 -85.5 q-27 -40.5 -72 -64.5 q54 -25 87 -71.5 q33 -46.5 33 -100.5 q0 -36 -15 -67.5 q-15 -31.5 -40.5 -54.5 q-25.5 -23 -60.5 -36 q-35 -13 -75 -13 q-40 0 -75 13 q-35 13 -60.5 35.5 q-25.5 22.5 -40 53 q-14.5 30.5 -14.5 65.5 q0 54 34 101 q34 47 91 73 q-43 22 -69 61.5 q-26 39.5 -26 84.5 q0 32 13 60 q13 28 36 49 q23 21 53 33 q30 12 65 12 q35 0 65 -11.5 q30 -11.5 51.5 -32 q21.5 -20.5 34 -47.5 q12.5 -27 12.5 -57 ZM237 303 q-45 -19 -75 -56.5 q-30 -37.5 -30 -82.5 q0 -23 9.5 -43 q9.5 -20 26 -35 q16.5 -15 38 -24 q21.5 -9 46.5 -9 q25 0 46.5 8.5 q21.5 8.5 37.5 23 q16 14.5 25 34 q9 19.5 9 42.5 q0 46 -36 84.5 q-36 38.5 -97 57.5 ZM174 429 q12 -20 31.5 -34.5 q19.5 -14.5 44.5 -27.5 l17 -9 q37 20 61 54 q24 34 24 69 q0 18 -7.5 34 q-7.5 16 -21 29 q-13.5 13 -31.5 20.5 q-18 7.5 -39 7.5 q-21 0 -38.5 -7.5 q-17.5 -7.5 -30.5 -19.5 q-13 -12 -20 -28 q-7 -16 -7 -33 q0 -30 17 -55 Z" /><glyph glyph-name="nine" unicode="9" d="M217 -10 q-80 0 -138 57 l49 53 q5 -3 8.5 -12 q3.5 -9 7.5 -12 q29 -23 71 -23 q75 0 112 56.5 q37 56.5 41 183.5 q-22 -31 -56 -49 q-34 -18 -73 -18 q-35 0 -66 14.5 q-31 14.5 -54.5 40.5 q-23.5 26 -37 62.5 q-13.5 36.5 -13.5 80.5 q0 44 14 81.5 q14 37.5 38.5 65 q24.5 27.5 57 43 q32.5 15.5 69.5 15.5 q91 0 140.5 -78.5 q49.5 -78.5 49.5 -251.5 q0 -79 -17.5 -137 q-17.5 -58 -47.5 -95.5 q-30 -37.5 -70 -56.5 q-40 -19 -85 -20 ZM364 363 q1 8 1 15.5 q0 7.5 0 15.5 q0 39 -9.5 71 q-9.5 32 -25.5 54.5 q-16 22.5 -37 35 q-21 12.5 -43 12.5 q-51 0 -82.5 -38 q-31.5 -38 -31.5 -104 q0 -32 9 -57.5 q9 -25.5 23.5 -43.5 q14.5 -18 33 -27.5 q18.5 -9.5 38.5 -9.5 q40 0 71.5 20.5 q31.5 20.5 52.5 55.5 Z" /><glyph glyph-name="colon" unicode=":" d="M280 406 q18 -18 18 -41 q0 -23 -18 -40 q-18 -17 -42 -17 q-23 0 -41 17 q-18 17 -18 40 q0 24 18 41 q18 17 41 17 q23 0 42 -17 ZM280 87 q18 -18 18 -41 q0 -23 -17.5 -40 q-17.5 -17 -42.5 -17 q-25 0 -42 16.5 q-17 16.5 -17 40.5 q0 24 18 41 q18 17 41 17 q23 0 42 -17 Z" /><glyph glyph-name="semicolon" unicode=";" d="M306 20 q0 -79 -107 -188 l-34 30 q28 26 46.5 56 q18.5 30 18.5 49 q0 10 -8 18.5 q-8 8.5 -17.5 16.5 q-9.5 8 -17.5 18.5 q-8 10.5 -8 23.5 q0 25 16.5 42 q16.5 17 42.5 17 q26 0 47 -23 q21 -23 21 -60 ZM280 406 q18 -18 18 -41 q0 -23 -18 -40 q-18 -17 -42 -17 q-23 0 -41 17 q-18 17 -18 40 q0 24 18 41 q18 17 41 17 q23 0 42 -17 Z" /><glyph glyph-name="less" unicode="&lt;" d="M458 496 l-347 -177 l350 -196 l0 -76 l-426 249 l0 48 l423 223 l0 -71 Z" /><glyph glyph-name="equal" unicode="=" d="M45 438 l411 0 l0 -61 l-411 0 l0 61 ZM45 231 l411 0 l0 -61 l-411 0 l0 61 Z" /><glyph glyph-name="greater" unicode="&gt;" d="M42 496 l0 71 l424 -223 l0 -48 l-426 -249 l0 76 l349 196 l-347 177 Z" /><glyph glyph-name="question" unicode="?" d="M303 85 q17 -19 17 -41 q0 -23 -17.5 -40 q-17.5 -17 -41.5 -17 q-24 0 -41.5 17 q-17.5 17 -17.5 40 q0 23 17.5 40.5 q17.5 17.5 41.5 17.5 q23 0 42 -17 ZM64 561 q32 49 84 76.5 q52 27.5 109 27.5 q40 0 72.5 -14 q32.5 -14 55.5 -38 q23 -24 36 -56 q13 -32 13 -68 q0 -28 -7 -49.5 q-7 -21.5 -17.5 -38.5 q-10.5 -17 -24.5 -30 q-14 -13 -28 -25 l-22 -18 q-29 -23 -36 -46.5 q-7 -23.5 -7 -55.5 l0 -41 l-66 0 l0 41 q0 21 1.5 38 q1.5 17 8 33.5 q6.5 16.5 20 35 q13.5 18.5 37.5 42.5 q35 35 48.5 63 q13.5 28 13.5 56 q0 22 -8 41.5 q-8 19.5 -22 34 q-14 14.5 -32.5 22.5 q-18.5 8 -39.5 8 q-42 0 -78.5 -23.5 q-36.5 -23.5 -59.5 -63.5 l-51 48 Z" /><glyph glyph-name="at" unicode="@" d="M435 30 q-65 -41 -140 -41 q-50 0 -97 19.5 q-47 19.5 -84.5 59 q-37.5 39.5 -60 100.5 q-22.5 61 -22.5 145 q0 83 21.5 143.5 q21.5 60.5 56 99.5 q34.5 39 77 58 q42.5 19 85.5 19 q42 0 77.5 -14.5 q35.5 -14.5 61.5 -45.5 q26 -31 40.5 -79.5 q14.5 -48.5 14.5 -115.5 l0 -203 l-60 0 l0 38 q-39 -46 -97 -46 q-29 0 -53 10.5 q-24 10.5 -42 28 q-18 17.5 -28 39.5 q-10 22 -10 46 q0 73 50.5 113 q50.5 40 161.5 40 l15 0 q0 28 -10.5 52.5 q-10.5 24.5 -29 43 q-18.5 18.5 -43 29 q-24.5 10.5 -51.5 10.5 q-32 0 -64 -15.5 q-32 -15.5 -57.5 -47.5 q-25.5 -32 -41.5 -82 q-16 -50 -16 -120 q0 -68 18.5 -118.5 q18.5 -50.5 48.5 -83.5 q30 -33 68 -49.5 q38 -16.5 77 -16.5 q57 0 107 33 l27 -49 ZM405 394 l-17 0 q-78 0 -114.5 -25 q-36.5 -25 -36.5 -64 q0 -38 23 -60.5 q23 -22.5 51 -22.5 q57 0 75.5 37.5 q18.5 37.5 18.5 115.5 l0 19 Z" /><glyph glyph-name="A" unicode="a" d="M15 0 l220 634 l8 0 l240 -634 l-72 0 l-69 182 l-198 0 l-60 -182 l-69 0 ZM326 236 l-88 238 l-80 -238 l168 0 Z" /><glyph glyph-name="B" unicode="b" d="M48 623 l177 0 q54 0 93.5 -10.5 q39.5 -10.5 63.5 -31.5 q24 -21 37 -48.5 q13 -27.5 13 -60.5 q0 -44 -24 -83 q-24 -39 -68 -55 q26 -9 47.5 -25.5 q21.5 -16.5 37.5 -37.5 q16 -21 24 -45.5 q8 -24.5 8 -50.5 q0 -79 -56 -127 q-56 -48 -177 -48 l-176 0 l0 623 ZM117 564 l0 -199 l98 0 q42 0 69 7.5 q27 7.5 43.5 20.5 q16.5 13 24.5 31.5 q8 18.5 10 39.5 q-2 21 -9.5 39 q-7.5 18 -23.5 31.5 q-16 13.5 -41 21.5 q-25 8 -62 8 l-109 0 ZM117 306 l0 -245 l119 0 q80 0 111.5 33.5 q31.5 33.5 35.5 84.5 q-2 28 -11 51 q-9 23 -27.5 40.5 q-18.5 17.5 -50 26.5 q-31.5 9 -75.5 9 l-102 0 Z" /><glyph glyph-name="C" unicode="c" d="M398 482 q0 12 -3 18 q-20 33 -52 52.5 q-32 19.5 -68 19.5 q-34 0 -64 -17.5 q-30 -17.5 -53 -51 q-23 -33.5 -36 -81.5 q-13 -48 -13 -109 q0 -59 13 -107.5 q13 -48.5 36.5 -83 q23.5 -34.5 55 -53.5 q31.5 -19 67.5 -19 q37 0 71.5 20.5 q34.5 20.5 55.5 55.5 l52 -34 q-15 -25 -36 -44 q-21 -19 -44.5 -32 q-23.5 -13 -47 -19.5 q-23.5 -6.5 -47.5 -6.5 q-54 0 -95.5 18.5 q-41.5 18.5 -76 57.5 q-34.5 39 -53.5 99 q-19 60 -19 143 q0 92 22 153.5 q22 61.5 58 98.5 q36 37 76.5 52.5 q40.5 15.5 78.5 15.5 q31 0 60.5 -9 q29.5 -9 55 -25 q25.5 -16 45.5 -38.5 q20 -22.5 32 -50.5 l-67 -33 q-4 3 -4 10 Z" /><glyph glyph-name="D" unicode="d" d="M54 623 l145 0 q80 0 124.5 -22 q44.5 -22 75.5 -63 q31 -41 46 -99 q15 -58 15 -131 q0 -72 -18 -129 q-18 -57 -49.5 -97.5 q-31.5 -40.5 -81.5 -61.5 q-50 -21 -124 -21 l-133 0 l0 624 ZM120 564 l0 -510 l64 0 q107 0 156.5 64.5 q49.5 64.5 49.5 185.5 q-1 122 -45.5 191 q-44.5 69 -149.5 69 l-75 0 Z" /><glyph glyph-name="E" unicode="e" d="M59 624 l382 0 l0 -62 l-316 0 l0 -205 l261 0 l0 -64 l-261 0 l0 -231 l313 0 l0 -62 l-379 0 l0 624 Z" /><glyph glyph-name="F" unicode="f" d="M78 624 l359 0 l0 -61 l-289 0 l0 -196 l233 0 l0 -61 l-233 0 l0 -306 l-70 0 l0 624 Z" /><glyph glyph-name="G" unicode="g" d="M458 525 l-49 -50 q-6 4 -13 19 q-15 33 -46.5 53.5 q-31.5 20.5 -73.5 20.5 q-29 0 -59.5 -12 q-30.5 -12 -55.5 -41 q-25 -29 -40.5 -76.5 q-15.5 -47.5 -15.5 -119.5 q0 -65 13 -115 q13 -50 36 -83.5 q23 -33.5 54.5 -51 q31.5 -17.5 68.5 -17.5 q65 0 118 38 l0 148 l-113 0 l0 61 l178 0 l0 -244 q-89 -65 -183 -65 q-56 0 -100.5 22.5 q-44.5 22.5 -76 63.5 q-31.5 41 -48 99 q-16.5 58 -16.5 129 q0 98 24.5 164 q24.5 66 63.5 100.5 q39 34.5 79.5 47.5 q40.5 13 73.5 13 q57 0 106 -28.5 q49 -28.5 75 -75.5 Z" /><glyph glyph-name="H" unicode="h" d="M54 623 l78 0 q1 -1 1 -3 q0 -3 -2.5 -8 q-2.5 -5 -3.5 -13 l0 -243 l244 0 l0 267 l76 0 q1 -1 1 -3 q0 -4 -3 -8.5 q-3 -4.5 -4 -10.5 l0 -602 l-71 0 l0 298 l-243 0 l0 -297 l-73 0 l0 623 Z" /><glyph glyph-name="I" unicode="i" d="M88 623 l309 0 l0 -59 l-123 0 l0 -507 l129 0 l0 -58 l-322 0 l0 59 l123 0 l0 506 l-116 0 l0 59 Z" /><glyph glyph-name="J" unicode="j" d="M172 623 l285 0 l0 -59 l-96 0 l0 -355 q0 -61 -11.5 -102 q-11.5 -41 -36.5 -68 q-25 -27 -54 -38.5 q-29 -11.5 -63 -11.5 q-89 0 -147 69 l47 57 q3 -3 3.5 -9.5 q0.5 -6.5 3.5 -10.5 l12 -12 q4 -5 13 -10.5 q9 -5.5 20.5 -10 q11.5 -4.5 23.5 -8 q12 -3.5 24 -3.5 q50 0 73 35 q23 35 23 122 l0 356 l-120 0 l0 59 Z" /><glyph glyph-name="K" unicode="k" d="M42 624 l84 0 q0 -6 -4.5 -12.5 q-4.5 -6.5 -4.5 -13.5 l0 -262 l260 292 q22 -5 52 -5 l26 0 l-236 -269 l252 -354 l-90 -4 l-215 316 l-49 -54 l0 -258 l-75 0 l0 624 Z" /><glyph glyph-name="L" unicode="l" d="M66 623 l82 0 q0 -7 -4.5 -16 q-4.5 -9 -4.5 -18 l0 -528 l300 0 l0 -61 l-373 0 l0 623 Z" /><glyph glyph-name="M" unicode="m" d="M41 623 l55 0 l154 -305 l157 306 l53 0 l0 -624 l-66 0 l0 470 l-135 -251 l-27 0 l-126 248 l0 -467 l-65 0 l0 623 Z" /><glyph glyph-name="N" unicode="n" d="M50 0 l0 623 l68 0 l262 -462 l0 463 l74 0 q0 -6 -3.5 -13 q-3.5 -7 -3.5 -14 l0 -597 l-55 0 l-275 490 l0 -490 l-67 0 Z" /><glyph glyph-name="O" unicode="o" d="M254 -10 q-51 0 -92.5 23.5 q-41.5 23.5 -71 66 q-29.5 42.5 -45.5 102 q-16 59.5 -16 131.5 q0 72 16.5 131 q16.5 59 46.5 100 q30 41 72 63.5 q42 22.5 92 22.5 q44 0 82 -19 q38 -19 69.5 -57.5 q31.5 -38.5 47.5 -98.5 q16 -60 16 -143 q0 -90 -19 -151.5 q-19 -61.5 -50 -99.5 q-31 -38 -69.5 -54.5 q-38.5 -16.5 -78.5 -16.5 ZM150 115 q47 -56 104 -56 q27 0 53 11.5 q26 11.5 47.5 40.5 q21.5 29 34 78 q12.5 49 12.5 125 q0 74 -14 121.5 q-14 47.5 -35.5 75.5 q-21.5 28 -45 40.5 q-23.5 12.5 -50.5 12.5 q-31 1 -57 -11 q-26 -12 -49 -39 q-23 -27 -37.5 -74 q-14.5 -47 -14.5 -121 q0 -69 14.5 -122 q14.5 -53 37.5 -82 Z" /><glyph glyph-name="P" unicode="p" d="M59 623 l200 0 q52 0 88.5 -13.5 q36.5 -13.5 60 -38 q23.5 -24.5 35 -56.5 q11.5 -32 13.5 -68 q-2 -36 -13.5 -67.5 q-11.5 -31.5 -34 -54.5 q-22.5 -23 -58 -36.5 q-35.5 -13.5 -86.5 -13.5 l-133 0 l0 -275 l-72 0 l0 623 ZM131 557 l0 -220 l125 0 q68 0 96.5 29.5 q28.5 29.5 31.5 78.5 q-2 23 -9.5 43.5 q-7.5 20.5 -22.5 35.5 q-15 15 -38.5 24 q-23.5 9 -56.5 9 l-126 0 Z" /><glyph glyph-name="Q" unicode="q" d="M149 514 q-52 -59 -52 -191 q0 -60 10.5 -109 q10.5 -49 31 -84 q20.5 -35 51 -55 q30.5 -20 66.5 -20 q25 0 51.5 12.5 q26.5 12.5 48.5 41 q22 28.5 35 74 q13 45.5 13 111.5 q0 84 -14 137 q-14 53 -38.5 83 q-24.5 30 -50.5 41.5 q-26 11.5 -50 11.5 q-30 0 -56 -15 q-26 -15 -46 -38 ZM471 311 q0 -138 -46.5 -218 q-46.5 -80 -137.5 -100 q2 -33 17 -54 q15 -21 57 -21 q5 0 16 1 q11 1 24 1.5 q13 0.5 24.5 1.5 q11.5 1 16.5 1 l-2 -68 l-39 0 q-49 0 -82.5 5 q-33.5 5 -54 23 q-20.5 18 -29.5 44.5 q-9 26.5 -9 65.5 q-38 5 -73 26.5 q-35 21.5 -63 60.5 q-28 39 -44.5 95.5 q-16.5 56.5 -16.5 132.5 q0 94 21.5 156 q21.5 62 54.5 98 q33 36 72 52 q39 16 74 16 q43 0 82.5 -18 q39.5 -18 72 -57.5 q32.5 -39.5 49 -98.5 q16.5 -59 16.5 -145 Z" /><glyph glyph-name="R" unicode="r" d="M56 623 l184 0 q110 0 158.5 -49 q48.5 -49 48.5 -129 q0 -27 -9 -53.5 q-9 -26.5 -25.5 -49.5 q-16.5 -23 -40 -40 q-23.5 -17 -52.5 -24 l144 -278 l-78 0 l-138 275 l-121 0 l0 -275 l-71 0 l0 623 ZM127 557 l0 -220 l121 0 q67 0 97 29.5 q30 29.5 30 78.5 q0 24 -8 44 q-8 20 -22.5 35 q-14.5 15 -38.5 24 q-24 9 -58 9 l-121 0 Z" /><glyph glyph-name="S" unicode="s" d="M435 549 l-44 -60 q-5 2 -5.5 8.5 q-0.5 6.5 -2.5 9.5 q-19 28 -51.5 45 q-32.5 17 -80.5 17 q-46 0 -76.5 -27 q-30.5 -27 -30.5 -64 q0 -22 7.5 -38 q7.5 -16 23 -31 q15.5 -15 45.5 -30.5 q30 -15.5 78 -34.5 q46 -19 76 -37.5 q30 -18.5 48 -39.5 q18 -21 25.5 -44.5 q7.5 -23.5 7.5 -52.5 q0 -32 -12 -64.5 q-12 -32.5 -37.5 -58 q-25.5 -25.5 -64.5 -41.5 q-39 -16 -94 -16 q-121 0 -195 80 l41 72 q5 -3 5 -10 q0 -7 3 -11 q23 -29 62 -48.5 q39 -19.5 94 -19.5 q28 0 51.5 9.5 q23.5 9.5 40.5 25 q17 15.5 27 37 q10 21.5 10 45.5 q0 19 -6.5 34.5 q-6.5 15.5 -21.5 29 q-15 13.5 -42.5 27 q-27.5 13.5 -72.5 31.5 q-49 19 -81.5 38.5 q-32.5 19.5 -52.5 39.5 q-20 20 -28.5 43 q-8.5 23 -8.5 50 q0 34 14.5 64 q14.5 30 40 52.5 q25.5 22.5 60.5 35 q35 12.5 75 12.5 q51 0 96 -20.5 q45 -20.5 77 -57.5 Z" /><glyph glyph-name="T" unicode="t" d="M31 624 l432 0 l0 -63 l-184 0 l0 -561 l-71 0 l0 561 l-177 0 l0 63 Z" /><glyph glyph-name="U" unicode="u" d="M50 623 l79 0 q1 0 1 -2 q0 -4 -4.5 -11.5 q-4.5 -7.5 -6.5 -18.5 l0 -377 q0 -52 10 -80.5 q10 -28.5 28 -47 q18 -18.5 42.5 -27.5 q24.5 -9 52.5 -11 q28 2 52.5 10 q24.5 8 43 27.5 q18.5 19.5 29 48.5 q10.5 29 10.5 83 l0 406 l67 0 l0 -405 q0 -61 -13.5 -103 q-13.5 -42 -41.5 -70 q-28 -28 -65 -42 q-37 -14 -83 -14 q-45 0 -82 14 q-37 14 -63.5 41 q-26.5 27 -41 66 q-14.5 39 -14.5 105 l0 408 Z" /><glyph glyph-name="V" unicode="v" d="M25 624 l73 0 l160 -479 l151 478 l69 0 l-209 -627 l-32 0 l-212 628 Z" /><glyph glyph-name="W" unicode="w" d="M17 623 l65 0 l67 -421 l100 375 l22 0 l101 -377 l57 423 l59 0 l-99 -627 l-27 0 l-107 411 l-109 -411 l-29 0 l-100 627 Z" /><glyph glyph-name="X" unicode="x" d="M379 624 l70 0 l-158 -305 l177 -319 l-79 0 l-138 247 l-134 -247 l-76 0 l170 318 l-167 306 l75 0 l131 -237 l129 237 Z" /><glyph glyph-name="Y" unicode="y" d="M28 623 l80 0 l153 -302 l138 302 l74 0 l-177 -377 l0 -246 l-76 0 l0 246 l-192 377 Z" /><glyph glyph-name="Z" unicode="z" d="M62 623 l385 0 l0 -49 l-309 -512 l294 0 q7 0 15.5 3 q8.5 3 15.5 3 l0 -68 l-413 0 l0 49 l314 511 l-302 0 l0 63 Z" /><glyph glyph-name="bracketleft" unicode="[" d="M131 670 l286 0 l0 -60 l-222 0 l0 -642 l223 0 l0 -57 l-287 0 l0 759 Z" /><glyph glyph-name="backslash" unicode="\" d="M437 -13 l-59 -29 l-314 676 l59 31 l314 -678 Z" /><glyph glyph-name="bracketright" unicode="]" d="M369 670 l0 -759 l-286 0 l0 57 l223 0 l0 642 l-222 0 l0 60 l285 0 Z" /><glyph glyph-name="asciicircum" unicode="^" d="M93 367 l153 256 l22 0 l135 -255 l-53 -25 l-97 175 l-110 -175 l-50 24 Z" /><glyph glyph-name="underscore" unicode="_" d="M35 -19 l431 0 l0 -61 l-431 0 l0 61 Z" /><glyph glyph-name="a" unicode="a" d="M91 403 q61 64 163 64 q84 0 132.5 -42.5 q48.5 -42.5 48.5 -141.5 l0 -283 l-68 0 l0 50 q-73 -61 -164 -61 q-36 0 -64.5 11 q-28.5 11 -48.5 29 q-20 18 -30.5 41 q-10.5 23 -10.5 46 q0 69 59.5 109 q59.5 40 171.5 44 l86 0 l0 17 q0 68 -28.5 95 q-28.5 27 -88.5 27 q-74 0 -123 -51 l-35 46 ZM369 214 l-17 0 q-14 0 -26.5 0.5 q-12.5 0.5 -24.5 0.5 q-55 0 -90 -7.5 q-35 -7.5 -55 -20.5 q-20 -13 -27.5 -29.5 q-7.5 -16.5 -7.5 -35.5 q0 -32 28 -55 q28 -23 69 -23 q30 0 54 9.5 q24 9.5 42 23 q18 13.5 29 28 q11 14.5 16 25.5 q10 20 10 54 l0 30 Z" /><glyph glyph-name="b" unicode="b" d="M60 665 l84 0 l0 -2 q0 -5 -5.5 -9.5 q-5.5 -4.5 -5.5 -10.5 l0 -256 q22 37 59.5 59 q37.5 22 76.5 22 q38 0 72 -14.5 q34 -14.5 60 -44 q26 -29.5 41 -73.5 q15 -44 15 -103 q0 -62 -16.5 -107.5 q-16.5 -45.5 -43.5 -76 q-27 -30.5 -61 -45.5 q-34 -15 -70 -15 q-42 0 -77 19 q-35 19 -58 52 l-25 -60 l-46 0 l0 665 ZM185 70 q19 -10 34 -13.5 q15 -3.5 28 -3.5 q20 0 44 7.5 q24 7.5 44.5 26.5 q20.5 19 34 51 q13.5 32 13.5 81 q0 91 -37 139 q-37 48 -107 48 q-25 0 -53 -18 q-28 -18 -41 -48 q-12 -30 -12 -98 q0 -42 2 -71 q2 -29 8 -48.5 q6 -19.5 16 -31.5 q10 -12 26 -21 Z" /><glyph glyph-name="c" unicode="c" d="M457 381 l-51 -59 q-5 3 -4.5 6.5 q0.5 3.5 -1 9.5 q-1.5 6 -7.5 15 q-6 9 -24 24 q-34 28 -93 28 q-29 0 -55.5 -12 q-26.5 -12 -46.5 -34.5 q-20 -22.5 -32 -54 q-12 -31.5 -12 -70.5 q0 -39 12 -72 q12 -33 33 -57 q21 -24 50 -37.5 q29 -13.5 64 -13.5 q69 0 119 56 l42 -49 q-68 -72 -167 -72 q-49 0 -90.5 18 q-41.5 18 -72 50 q-30.5 32 -47.5 75.5 q-17 43.5 -17 95.5 q0 51 17 95 q17 44 47.5 75.5 q30.5 31.5 73 49.5 q42.5 18 92.5 18 q54 0 98.5 -22.5 q44.5 -22.5 72.5 -62.5 Z" /><glyph glyph-name="d" unicode="d" d="M371 390 l0 275 l77 0 q0 -6 -5 -13.5 q-5 -7.5 -5 -14.5 l1 -595 q0 -24 5 -42 l-72 0 q-4 12 -4 34 l0 39 q-22 -38 -60 -60.5 q-38 -22.5 -77 -22.5 q-38 0 -71.5 15 q-33.5 15 -59 45 q-25.5 30 -40.5 75.5 q-15 45.5 -15 107.5 q0 63 17 107.5 q17 44.5 44.5 73 q27.5 28.5 61.5 42 q34 13.5 69 13.5 q48 0 82.5 -21.5 q34.5 -21.5 51.5 -57.5 ZM158 376 q-43 -39 -43 -132 q0 -86 33 -138.5 q33 -52.5 97 -52.5 q15 0 32 5.5 q17 5.5 32 16.5 q15 11 27 26 q12 15 18 34 q11 36 11 96 q0 38 -3 63.5 q-3 25.5 -9.5 43.5 q-6.5 18 -16.5 29.5 q-10 11.5 -25 20.5 q-18 11 -33.5 16.5 q-15.5 5.5 -29.5 5.5 q-29 0 -49.5 -8 q-20.5 -8 -40.5 -26 Z" /><glyph glyph-name="e" unicode="e" d="M259 468 q36 0 70 -13 q34 -13 59.5 -39.5 q25.5 -26.5 41 -67.5 q15.5 -41 15.5 -97 q0 -8 -0.5 -16.5 q-0.5 -8.5 -1.5 -16.5 l-325 0 q2 -48 16.5 -80.5 q14.5 -32.5 36.5 -52.5 q22 -20 49 -28.5 q27 -8.5 54 -8.5 q71 0 118 51 l40 -39 q-58 -70 -160 -70 q-50 0 -91.5 15.5 q-41.5 15.5 -70.5 45.5 q-29 30 -45 74.5 q-16 44.5 -16 101.5 q0 58 16.5 103 q16.5 45 45 75.5 q28.5 30.5 66.5 46.5 q38 16 82 16 ZM121 274 l251 0 q0 4 0.5 7.5 q0.5 3.5 0.5 8.5 q0 25 -9.5 47.5 q-9.5 22.5 -25.5 39 q-16 16.5 -37.5 26.5 q-21.5 10 -46.5 10 q-47 0 -85 -33.5 q-38 -33.5 -48 -105.5 Z" /><glyph glyph-name="f" unicode="f" d="M343 671 q87 0 140 -63 l-33 -66 q-8 0 -8 8 q0 8 -2 12 q-16 23 -42.5 37.5 q-26.5 14.5 -57.5 14.5 q-26 0 -45 -7.5 q-19 -7.5 -34 -24.5 q-15 -17 -22.5 -46 q-7.5 -29 -7.5 -71 l0 -35 l150 0 l0 -57 l-150 0 l0 -373 l-69 0 l0 373 l-99 0 l0 57 l99 0 l0 45 q0 53 13.5 90.5 q13.5 37.5 39 60.5 q25.5 23 58 34 q32.5 11 70.5 11 Z" /><glyph glyph-name="g" unicode="g" d="M155 385 q-15 -15 -22 -33 q-7 -18 -7 -38 q0 -20 8 -38.5 q8 -18.5 21.5 -32 q13.5 -13.5 32 -21.5 q18.5 -8 38.5 -8 q21 0 39 8 q18 8 32 22 q14 14 22 32 q8 18 8 38 q0 20 -8 38.5 q-8 18.5 -22 32.5 q-14 14 -32.5 22 q-18.5 8 -38.5 8 q-41 0 -71 -30 ZM339 428 q48 41 114 41 l13 0 l9 -59 q-7 1 -13.5 1.5 q-6.5 0.5 -13.5 0.5 q-44 0 -79 -22 q23 -35 23 -77 q0 -32 -13 -60.5 q-13 -28.5 -35.5 -50 q-22.5 -21.5 -52.5 -34 q-30 -12.5 -64 -12.5 q-28 0 -58 11 q-32 -31 -32 -52 q0 -17 19.5 -26.5 q19.5 -9.5 53.5 -9.5 q19 0 38.5 1.5 q19.5 1.5 36.5 1.5 q45 0 77.5 -8.5 q32.5 -8.5 52.5 -24 q20 -15.5 30 -36.5 q10 -21 10 -45 q0 -27 -13 -52.5 q-13 -25.5 -39 -45 q-26 -19.5 -65.5 -31 q-39.5 -11.5 -92.5 -11.5 q-55 0 -94.5 8.5 q-39.5 8.5 -63.5 23.5 q-24 15 -36.5 34.5 q-12.5 19.5 -12.5 41.5 q0 54 75 101 q-37 19 -37 63 q0 43 52 86 q-32 21 -50 54 q-18 33 -18 70 q0 34 14 63.5 q14 29.5 37.5 51.5 q23.5 22 54 34.5 q30.5 12.5 62.5 12.5 q67 0 111 -44 ZM161 24 q-57 -32 -57 -70 q0 -20 11.5 -33.5 q11.5 -13.5 31 -22 q19.5 -8.5 46 -12.5 q26.5 -4 55.5 -4 q61 0 101 22 q40 22 40 59 q-2 27 -22.5 42 q-20.5 15 -64.5 15 q-5 0 -10 -0.5 q-5 -0.5 -10 -0.5 q-38 0 -68 1.5 q-30 1.5 -53 3.5 Z" /><glyph glyph-name="h" unicode="h" d="M70 0 l0 665 l83 0 q0 -1 0.5 -1 q0.5 0 0.5 -1 q0 -3 -4.5 -8.5 q-4.5 -5.5 -6.5 -13.5 l0 -265 q27 42 67.5 67 q40.5 25 82.5 25 q31 0 56.5 -10.5 q25.5 -10.5 44.5 -33.5 q19 -23 29 -59 q10 -36 10 -88 l0 -277 l-71 0 l0 275 q0 72 -24.5 101 q-24.5 29 -59.5 29 q-23 0 -46 -10 q-23 -10 -44.5 -28 q-21.5 -18 -33 -44 q-11.5 -26 -11.5 -60 l0 -263 l-73 0 Z" /><glyph glyph-name="i" unicode="i" d="M106 457 l183 0 l0 -399 l107 0 l0 -58 l-296 0 l0 58 l117 0 l0 341 l-111 0 l0 58 ZM218 641 q15 15 36 15 q21 0 36.5 -15.5 q15.5 -15.5 15.5 -36.5 q0 -21 -15.5 -36 q-15.5 -15 -36.5 -15 q-21 0 -36 15 q-15 15 -15 36 q0 22 15 37 Z" /><glyph glyph-name="j" unicode="j" d="M126 457 l243 0 l0 -435 q0 -52 -14 -88.5 q-14 -36.5 -38.5 -59.5 q-24.5 -23 -57.5 -34.5 q-33 -11.5 -71 -13.5 q-88 0 -140 64 l47 62 q5 -5 5.5 -10 q0.5 -5 3.5 -11 q3 -6 12 -13.5 q9 -7.5 30 -18.5 q22 -11 47 -11 q45 0 74 30.5 q29 30.5 29 99.5 l0 380 l-170 0 l0 59 ZM296 641 q15 15 37 15 q21 0 36.5 -15 q15.5 -15 15.5 -37 q0 -21 -15.5 -36 q-15.5 -15 -36.5 -15 q-21 0 -36.5 15 q-15.5 15 -15.5 36 q0 22 15 37 Z" /><glyph glyph-name="k" unicode="k" d="M66 665 l82 0 q0 -6 -4.5 -13 q-4.5 -7 -4.5 -13 l0 -392 l229 212 q23 -5 53 -5 l26 0 l-192 -181 l224 -273 l-93 -4 l-187 233 l-60 -56 l0 -173 l-73 0 l0 665 Z" /><glyph glyph-name="l" unicode="l" d="M85 665 l202 0 l0 -607 l134 0 l0 -58 l-342 0 l0 58 l135 0 l0 549 l-129 0 l0 58 Z" /><glyph glyph-name="m" unicode="m" d="M38 0 l0 457 l66 0 l0 -45 q16 25 41 40.5 q25 15.5 53 15.5 q29 0 51.5 -19 q22.5 -19 28.5 -48 q13 30 41 48.5 q28 18.5 61 18.5 q47 0 69 -33.5 q22 -33.5 20 -83.5 l0 -351 l-66 0 l0 324 q0 31 -3 49 q-3 18 -10 27.5 q-7 9.5 -14 12 q-7 2.5 -18 2.5 q-13 0 -26 -10.5 q-13 -10.5 -23 -26.5 q-10 -16 -16 -36.5 q-6 -20.5 -6 -39.5 l0 -302 l-67 0 l0 318 q0 57 -10.5 76 q-10.5 19 -36.5 19 q-24 0 -46.5 -28.5 q-22.5 -28.5 -22.5 -79.5 l0 -305 l-66 0 Z" /><glyph glyph-name="n" unicode="n" d="M68 0 l0 457 l74 0 l0 -81 q26 42 66.5 67 q40.5 25 82.5 25 q30 0 56 -10.5 q26 -10.5 45 -33.5 q19 -23 29.5 -59 q10.5 -36 10.5 -88 l0 -277 l-71 0 l0 275 q0 72 -24.5 101 q-24.5 29 -59.5 29 q-23 0 -47 -10 q-24 -10 -43.5 -28.5 q-19.5 -18.5 -32 -44.5 q-12.5 -26 -12.5 -59 l0 -263 l-74 0 Z" /><glyph glyph-name="o" unicode="o" d="M254 467 q42 0 79.5 -16.5 q37.5 -16.5 65.5 -47.5 q28 -31 44.5 -75.5 q16.5 -44.5 16.5 -99.5 q0 -56 -16 -100 q-16 -44 -44 -75.5 q-28 -31.5 -66 -48 q-38 -16.5 -81 -16.5 q-44 0 -82.5 18 q-38.5 18 -67.5 49.5 q-29 31.5 -46 75.5 q-17 44 -17 95 q0 51 17.5 96 q17.5 45 47 76.5 q29.5 31.5 68.5 50 q39 18.5 81 18.5 ZM388 226 q0 43 -11.5 76.5 q-11.5 33.5 -30.5 56.5 q-19 23 -43.5 35 q-24.5 12 -51.5 12 q-27 0 -51.5 -12 q-24.5 -12 -43 -35 q-18.5 -23 -29.5 -55.5 q-11 -32.5 -11 -73.5 q0 -40 11 -73 q11 -33 29.5 -57 q18.5 -24 43.5 -37 q25 -13 53 -13 q28 0 52.5 11.5 q24.5 11.5 43 34 q18.5 22.5 29 55.5 q10.5 33 10.5 75 Z" /><glyph glyph-name="p" unicode="p" d="M60 457 l73 0 l0 -70 q23 37 61.5 58.5 q38.5 21.5 77.5 21.5 q38 0 72.5 -14.5 q34.5 -14.5 61 -43.5 q26.5 -29 42 -73 q15.5 -44 15.5 -104 q0 -60 -16.5 -106 q-16.5 -46 -43.5 -76.5 q-27 -30.5 -61.5 -46 q-34.5 -15.5 -70.5 -15.5 q-42 0 -78 19 q-36 19 -59 53 l0 -227 l-74 0 l0 624 ZM133 190 q2 -74 34 -106 q32 -32 79 -32 q25 0 50 8 q25 8 46 27.5 q21 19.5 33.5 51.5 q12.5 32 12.5 80 q0 88 -36.5 136.5 q-36.5 48.5 -102.5 50.5 q-20 0 -41 -7 q-21 -7 -37.5 -24 q-16.5 -17 -27 -45.5 q-10.5 -28.5 -10.5 -70.5 l0 -69 Z" /><glyph glyph-name="q" unicode="q" d="M374 390 l0 67 l68 0 l0 -624 l-72 0 l0 240 q-21 -38 -59 -60.5 q-38 -22.5 -81 -22.5 q-39 0 -73.5 17.5 q-34.5 17.5 -60 49.5 q-25.5 32 -40 77 q-14.5 45 -14.5 100 q0 55 16 98.5 q16 43.5 43.5 74 q27.5 30.5 64 46.5 q36.5 16 77.5 16 q84 0 124 -67 q7 -10 7 -12 ZM243 410 q-26 0 -49 -10.5 q-23 -10.5 -40.5 -31.5 q-17.5 -21 -28 -53.5 q-10.5 -32.5 -10.5 -75.5 q0 -44 10.5 -78.5 q10.5 -34.5 28.5 -58.5 q18 -24 41.5 -36.5 q23.5 -12.5 50.5 -12.5 q57 0 89.5 43 q32.5 43 32.5 139 q0 98 -34 136.5 q-34 38.5 -91 38.5 Z" /><glyph glyph-name="r" unicode="r" d="M99 457 l75 0 l-2 -88 q21 48 66.5 73.5 q45.5 25.5 97.5 25.5 q74 0 122 -50 l-33 -69 q-11 15 -20 25 q-9 10 -19.5 17 q-10.5 7 -23 11 q-12.5 4 -30.5 4 q-33 0 -62 -15.5 q-29 -15.5 -50.5 -41 q-21.5 -25.5 -34.5 -58.5 q-13 -33 -13 -69 l0 -223 l-73 0 l0 458 Z" /><glyph glyph-name="s" unicode="s" d="M432 396 l-42 -63 q-5 1 -5 8 q0 7 -2 10 q-18 23 -51 42.5 q-33 19.5 -75 19.5 q-19 0 -36.5 -4.5 q-17.5 -4.5 -31 -12.5 q-13.5 -8 -21.5 -20.5 q-8 -12.5 -8 -28.5 q0 -12 6 -21.5 q6 -9.5 19 -18.5 q13 -9 36.5 -18 q23.5 -9 61.5 -20 q86 -23 121.5 -54.5 q35.5 -31.5 35.5 -77.5 q0 -30 -13 -57 q-13 -27 -38 -47 q-25 -20 -60 -31.5 q-35 -11.5 -79 -11.5 q-115 0 -193 72 l41 72 q3 -3 4 -9.5 q1 -6.5 7 -15.5 q6 -9 22 -20.5 q16 -11.5 49 -25.5 q15 -7 34 -10 q19 -3 38 -3 q20 0 40.5 5 q20.5 5 37 14.5 q16.5 9.5 26.5 23 q10 13.5 10 30.5 q0 26 -24 44 q-24 18 -88 37 q-44 13 -58 18 q-36 14 -52 24.5 q-16 10.5 -29 25 q-13 14.5 -21 33 q-8 18.5 -8 40.5 q0 24 13 46 q13 22 36.5 39 q23.5 17 56 27.5 q32.5 10.5 70.5 10.5 q105 0 170 -72 Z" /><glyph glyph-name="t" unicode="t" d="M188 579 l79 13 q0 -9 -2.5 -16 q-2.5 -7 -3.5 -11 l-12 -108 l150 0 l0 -59 l-150 0 q-9 -89 -9 -167 q0 -48 2 -81 q2 -33 10.5 -52 q8.5 -19 24.5 -29.5 q16 -10.5 43 -10.5 q46 0 102 41 l22 -57 q-69 -51 -142 -51 q-72 0 -105 43.5 q-33 43.5 -30 141.5 q0 36 2 92 q2 56 8 130 l-107 0 l0 59 l110 0 l8 122 Z" /><glyph glyph-name="u" unicode="u" d="M63 457 l72 0 l0 -255 q0 -44 8 -73.5 q8 -29.5 22.5 -47.5 q14.5 -18 33 -26 q18.5 -8 40.5 -8 q24 2 46 12 q22 10 39.5 28.5 q17.5 18.5 27.5 47.5 q10 29 10 70 l0 252 l73 0 l0 -416 q0 -23 5 -41 l-76 0 q-1 7 -2 15.5 q-1 8.5 0 19.5 l1 35 q-22 -38 -59.5 -59.5 q-37.5 -21.5 -82.5 -21.5 q-35 0 -63 12.5 q-28 12.5 -50.5 38.5 q-22.5 26 -34 66 q-11.5 40 -11.5 96 l1 255 Z" /><glyph glyph-name="v" unicode="v" d="M50 432 l-10 25 l86 0 q0 -7 -1.5 -12.5 q-1.5 -5.5 -1.5 -9.5 q0 -2 1 -3 l132 -334 l74 170 q24 55 39 102 q15 47 23 87 l65 0 q-20 -84 -69 -200 l-111 -260 l-56 0 l-171 435 Z" /><glyph glyph-name="w" unicode="w" d="M16 457 l73 0 l0 -4 q0 -6 -2 -13.5 q-2 -7.5 -2 -14.5 q0 -4 1 -6 l67 -329 l78 324 l44 0 l97 -323 q13 88 21.5 145 q8.5 57 13 94.5 q4.5 37.5 6 62 q1.5 24.5 1.5 49.5 l0 15 l67 0 q-15 -116 -34 -230 q-19 -114 -42 -228 l-68 0 l-84 296 l-80 -296 l-65 0 l-92 458 Z" /><glyph glyph-name="x" unicode="x" d="M362 457 l74 0 l-148 -222 l168 -235 l-82 0 l-126 178 l-119 -178 l-82 0 l161 232 l-158 225 l79 0 l119 -169 l114 169 Z" /><glyph glyph-name="y" unicode="y" d="M59 425 l-13 32 l89 0 q0 -8 -2 -13.5 q-2 -5.5 -2 -10.5 q0 -4 2 -6 l134 -336 l87 245 q13 35 21 65.5 q8 30.5 13 55.5 l75 0 q-9 -26 -19.5 -59 q-10.5 -33 -25.5 -73 l-124 -327 l-19 -50 q-24 -67 -61.5 -94.5 q-37.5 -27.5 -86.5 -27.5 q-65 0 -105 39 l38 64 q3 -3 5 -9.5 q2 -6.5 3 -8.5 q0 0 4 -4.5 q4 -4.5 10.5 -9 q6.5 -4.5 16.5 -8.5 q10 -4 22 -4 q29 0 51.5 18 q22.5 18 44.5 65 l14 34 l-172 423 Z" /><glyph glyph-name="z" unicode="z" d="M71 457 l355 0 l0 -49 l-278 -346 l271 0 q7 0 15.5 3 q8.5 3 15.5 3 l0 -68 l-400 0 l0 49 l283 345 l-262 0 l0 63 Z" /><glyph glyph-name="braceleft" unicode="{" d="M159 16 l4 100 q0 66 -23.5 89 q-23.5 23 -66.5 23 l-20 0 l0 56 l19 0 q46 0 69.5 25 q23.5 25 23.5 82 l-2 72 q0 174 182 174 l63 0 l0 -57 l-82 0 q-93 0 -93 -106 l2 -70 q0 -111 -87 -148 q85 -28 85 -155 l-3 -84 q0 -68 29.5 -94 q29.5 -26 96.5 -26 l51 0 l0 -56 l-36 0 q-48 0 -86.5 3.5 q-38.5 3.5 -69.5 26.5 q-56 44 -56 145 Z" /><glyph glyph-name="bar" unicode="|" d="M217 652 l67 0 l0 -803 l-67 0 l0 803 Z" /><glyph glyph-name="braceright" unicode="}" d="M338 463 l-3 -72 q0 -57 24 -82 q24 -25 69 -25 l20 0 l0 -56 l-21 0 q-43 0 -66 -23 q-23 -23 -23 -89 l3 -100 q0 -89 -40 -132 q-40 -43 -126 -43 l-82 0 l0 56 l55 0 q22 0 35.5 1 q13.5 1 22 3.5 q8.5 2.5 14 5.5 q5.5 3 10.5 7 q41 29 41 103 l-3 84 q0 126 84 155 q-87 37 -87 148 l3 70 q0 57 -25 81.5 q-25 24.5 -76 24.5 l-75 0 l0 57 l31 0 q34 0 72 -2.5 q38 -2.5 70 -21.5 q32 -19 52.5 -54 q20.5 -35 20.5 -96 Z" /><glyph glyph-name="asciitilde" unicode="~" d="M91 342 l-50 33 q24 39 60.5 64 q36.5 25 70.5 25 q35 0 59.5 -11.5 q24.5 -11.5 39.5 -25.5 q41 -38 68 -38 q28 0 47 16 q19 16 44 49 l46 -38 q-12 -18 -28 -35 q-16 -17 -33 -29.5 q-17 -12.5 -35 -20 q-18 -7.5 -36 -7.5 q-34 0 -58 12.5 q-24 12.5 -38 27.5 q-37 40 -74 40 q-45 0 -83 -62 Z" /><glyph glyph-name="nonbreakingspace" unicode=" " d="" /><glyph glyph-name="exclamdown" unicode="¡" d="M197 567 q-17 16 -17 41 q0 24 18 42 q18 18 41 18 q23 0 41.5 -18 q18.5 -18 18.5 -42 q0 -23 -18 -40.5 q-18 -17.5 -42 -17.5 q-25 0 -42 17 ZM238 -11 q-23 0 -37 20 q-14 20 -14 63 q0 11 1 26.5 q1 15.5 3 35.5 l5 52 l18 277 l50 0 l15 -277 q1 -15 2.5 -32 q1.5 -17 3 -34.5 q1.5 -17.5 3 -33 q1.5 -15.5 1.5 -25.5 q0 -35 -14 -53.5 q-14 -18.5 -37 -18.5 Z" /><glyph glyph-name="cent" unicode="¢" d="M285 624 l67 -7 q0 -6 -4 -13.5 q-4 -7.5 -5 -14.5 l-10 -82 q77 -15 118 -77 l-44 -57 q-4 3 -4 12.5 q0 9.5 -4 13.5 q-29 35 -74 48 l-46 -350 q75 0 131 56 l36 -49 q-65 -71 -168 -71 l-8 0 l-15 -112 l-57 7 l14 113 q-75 21 -119.5 83 q-44.5 62 -44.5 156 q0 47 16.5 88 q16.5 41 45.5 72.5 q29 31.5 70 50.5 q41 19 91 21 l14 112 ZM220 108 l43 346 q-32 -2 -58 -15 q-26 -13 -45.5 -35 q-19.5 -22 -30 -51.5 q-10.5 -29.5 -10.5 -64.5 q0 -70 27.5 -116 q27.5 -46 73.5 -64 Z" /><glyph glyph-name="sterling" unicode="£" d="M418 572 l-44 -55 q-8 8 -10.5 16 q-2.5 8 -14.5 14 q-24 19 -59 19 q-21 0 -40.5 -7 q-19.5 -7 -35.5 -22 q-16 -15 -25.5 -38.5 q-9.5 -23.5 -9.5 -55.5 q0 -25 8 -65 l100 0 l0 -57 l-86 0 q13 -56 13 -97 q0 -76 -36 -134 q7 1 16 1.5 q9 0.5 21 0.5 q10 0 30 -6.5 q20 -6.5 43 -14 q23 -7.5 46 -14 q23 -6.5 39 -6.5 q37 0 71 28 l26 -52 q-53 -42 -104 -42 q-14 0 -37 7 q-23 7 -49.5 15.5 q-26.5 8.5 -52.5 15.5 q-26 7 -47 7 q-44 0 -115 -38 l-26 57 q23 11 36 17.5 q13 6.5 20 12 q7 5.5 10.5 10 q3.5 4.5 7.5 11.5 q35 55 35 122 q0 37 -15 99 l-66 0 l0 57 l52 0 q-7 34 -7 64 q0 41 14 74.5 q14 33.5 38 57 q24 23.5 56 36.5 q32 13 68 13 q74 0 130 -51 Z" /><glyph glyph-name="currency" unicode="¤" d="M68 492 l36 35 l56 -56 q41 29 91 29 q47 0 89 -28 l56 55 l36 -35 l-56 -55 q30 -42 30 -92 q0 -50 -29 -91 l55 -55 l-36 -35 l-55 55 q-20 -15 -43 -22 q-23 -7 -47 -7 q-50 0 -92 30 l-55 -56 l-36 35 l56 57 q-14 20 -21 43 q-7 23 -7 46 q0 24 7 47 q7 23 22 43 l-57 57 ZM321 416 q-30 30 -71 30 q-20 0 -38 -8 q-18 -8 -32 -22 q-14 -14 -22 -32 q-8 -18 -8 -39 q0 -20 8 -38.5 q8 -18.5 21.5 -32 q13.5 -13.5 32 -21.5 q18.5 -8 38.5 -8 q21 0 39 8 q18 8 32 22 q14 14 22 32 q8 18 8 38 q0 41 -30 71 Z" /><glyph glyph-name="yen" unicode="¥" d="M36 624 l78 0 l145 -261 l133 260 l74 0 l-174 -328 l0 -21 l134 0 l0 -57 l-134 0 l0 -63 l134 0 l0 -56 l-134 0 l0 -98 l-68 0 l0 98 l-140 0 l0 56 l140 0 l0 63 l-140 0 l0 57 l140 0 l0 21 l-188 329 Z" /><glyph glyph-name="brokenbar" unicode="¦" d="M217 652 l67 0 l0 -357 l-67 0 l0 357 ZM284 -151 l-67 0 l0 347 l67 0 l0 -347 Z" /><glyph glyph-name="section" unicode="§" d="M413 583 l-57 -50 q-5 5 -6 11 q-2 13 -9.5 25.5 q-7.5 12.5 -20.5 22 q-13 9.5 -29.5 15.5 q-16.5 6 -34.5 6 q-18 0 -34.5 -6 q-16.5 -6 -28.5 -16.5 q-12 -10.5 -19 -24.5 q-7 -14 -7 -30 q0 -24 9 -38 q9 -14 28.5 -27.5 q19.5 -13.5 49.5 -23.5 q30 -10 72 -28 q92 -44 92 -114 q0 -30 -20.5 -56.5 q-20.5 -26.5 -53.5 -39.5 q64 -43 64 -111 q0 -33 -13 -61 q-13 -28 -35.5 -48 q-22.5 -20 -54 -31.5 q-31.5 -11.5 -67.5 -11.5 q-51 0 -96.5 21.5 q-45.5 21.5 -76.5 63.5 l52 61 q6 -2 7 -5 q1 -3 2.5 -8.5 q1.5 -5.5 7 -14.5 q5.5 -9 20.5 -23 q31 -29 80 -29 q49 0 76 23 q27 23 27 56 q0 17 -5.5 30.5 q-5.5 13.5 -18.5 25 q-13 11.5 -36 21.5 q-23 10 -57 20 q-77 25 -109 54 q-32 29 -32 74 q0 33 22.5 60.5 q22.5 27.5 59.5 40.5 q-67 40 -67 113 q0 29 12.5 54.5 q12.5 25.5 34.5 45 q22 19.5 52 31 q30 11.5 64 11.5 q49 0 90.5 -23.5 q41.5 -23.5 65.5 -65.5 ZM197 399 q-20 -7 -32.5 -24 q-12.5 -17 -12.5 -39 q0 -33 24.5 -54.5 q24.5 -21.5 79.5 -37.5 q17 -5 30 -8.5 q13 -3.5 21 -7.5 q36 19 36 64 q0 33 -24.5 53 q-24.5 20 -78.5 39 l-43 15 Z" /><glyph glyph-name="dieresis" unicode="¨" d="M198 650 q15 -15 15 -36 q0 -20 -15 -35 q-15 -15 -35 -15 q-21 0 -36 15 q-15 15 -15 35 q0 20 15 35.5 q15 15.5 36 15.5 q20 0 35 -15 ZM376 650 q15 -15 15 -36 q0 -20 -15 -35 q-15 -15 -35 -15 q-21 0 -35.5 14.5 q-14.5 14.5 -14.5 35.5 q0 21 14.5 36 q14.5 15 35.5 15 q20 0 35 -15 Z" /><glyph glyph-name="copyright" unicode="©" d="M387 331 l-52 -19 q-4 7 -3.5 12 q0.5 5 -1 10.5 q-1.5 5.5 -7 12 q-5.5 6.5 -21.5 17.5 q-17 10 -40 10 q-14 0 -30 -5 q-16 -5 -29.5 -16.5 q-13.5 -11.5 -22.5 -29 q-9 -17.5 -9 -42.5 q0 -22 7.5 -41.5 q7.5 -19.5 20 -34 q12.5 -14.5 29.5 -23 q17 -8.5 37 -8.5 q24 0 44 12 q20 12 31 33 l44 -29 q-21 -32 -54 -50 q-33 -18 -69 -18 q-31 0 -57.5 12.5 q-26.5 12.5 -46 33.5 q-19.5 21 -31 49 q-11.5 28 -11.5 59 q0 31 12 58.5 q12 27.5 32 47 q20 19.5 44.5 31 q24.5 11.5 50.5 11.5 q54 0 88.5 -25.5 q34.5 -25.5 44.5 -67.5 ZM426 93 q-71 -74 -171 -74 q-50 0 -94 20 q-44 20 -76.5 55 q-32.5 35 -51.5 81 q-19 46 -19 99 q0 53 19 99.5 q19 46.5 52 81.5 q33 35 77 55 q44 20 94 20 q49 0 93 -20 q44 -20 77 -55 q33 -35 52.5 -81.5 q19.5 -46.5 19.5 -99.5 q0 -106 -72 -181 ZM257 488 q-41 0 -77 -16.5 q-36 -16.5 -63 -45.5 q-27 -29 -42.5 -68 q-15.5 -39 -15.5 -84 q0 -44 15.5 -83 q15.5 -39 42.5 -67.5 q27 -28.5 63 -45 q36 -16.5 77 -16.5 q40 0 76 17 q36 17 63 46 q27 29 43 67.5 q16 38.5 16 82.5 q0 44 -15.5 82.5 q-15.5 38.5 -42.5 67.5 q-27 29 -63 46 q-36 17 -77 17 Z" /><glyph glyph-name="ordfeminine" unicode="ª" d="M325 488 q0 81 -74 81 q-62 0 -94 -44 l-34 41 q50 56 134 56 q63 -2 97.5 -33 q34.5 -31 34.5 -94 l0 -10 l0 -218 l-63 0 l0 33 q-46 -43 -102 -43 q-55 0 -88.5 31 q-33.5 31 -33.5 74 q0 42 31.5 72 q31.5 30 85.5 38 q32 3 54 3.5 q22 0.5 38 0.5 l14 0 l0 12 ZM328 424 l-16 0 q-42 0 -70 -2 q-28 -2 -45 -9.5 q-17 -7.5 -24 -19 q-7 -11.5 -7 -30.5 q0 -19 16.5 -35.5 q16.5 -16.5 48.5 -16.5 q13 0 30 5 q17 5 32 16 q15 11 25 29 q10 18 10 45 l0 18 ZM76 206 l349 0 l0 -54 l-349 0 l0 54 Z" /><glyph glyph-name="guillemotleft" unicode="«" d="M249 253 l151 147 l39 -41 l-121 -118 l128 -140 l-40 -40 l-157 169 l0 23 ZM67 253 l152 147 l39 -41 l-121 -118 l128 -140 l-40 -40 l-158 169 l0 23 Z" /><glyph glyph-name="logicalnot" unicode="¬" d="M91 347 l323 0 l0 -190 l-64 0 l0 127 l-259 0 l0 63 Z" /><glyph glyph-name="registered" unicode="®" d="M426 93 q-71 -74 -171 -74 q-50 0 -94 20 q-44 20 -76.5 55 q-32.5 35 -51.5 81 q-19 46 -19 99 q0 53 19 99.5 q19 46.5 52 81.5 q33 35 77 55 q44 20 94 20 q49 0 93 -20 q44 -20 77 -55 q33 -35 52.5 -81.5 q19.5 -46.5 19.5 -99.5 q0 -106 -72 -181 ZM257 488 q-41 0 -77 -16.5 q-36 -16.5 -63 -45.5 q-27 -29 -42.5 -68 q-15.5 -39 -15.5 -84 q0 -44 15.5 -83 q15.5 -39 42.5 -67.5 q27 -28.5 63 -45 q36 -16.5 77 -16.5 q40 0 76 17 q36 17 63 46 q27 29 43 67.5 q16 38.5 16 82.5 q0 44 -15.5 82.5 q-15.5 38.5 -42.5 67.5 q-27 29 -63 46 q-36 17 -77 17 ZM155 133 l0 292 l94 0 q65 0 92.5 -24 q27.5 -24 27.5 -61 q0 -25 -14.5 -47 q-14.5 -22 -42.5 -30 l64 -125 l-47 -7 l-62 125 l-66 0 l0 -123 l-46 0 ZM253 296 q71 0 71 44 q0 44 -74 44 l-49 0 l0 -88 l52 0 Z" /><glyph glyph-name="macron" unicode="¯" d="M123 621 l254 0 l0 -56 l-254 0 l0 56 Z" /><glyph glyph-name="degree" unicode="°" d="M351 599 q40 -39 40 -95 q0 -27 -10.5 -51.5 q-10.5 -24.5 -29 -42.5 q-18.5 -18 -43 -29 q-24.5 -11 -52.5 -11 q-28 0 -52.5 10.5 q-24.5 10.5 -43 28.5 q-18.5 18 -29 42.5 q-10.5 24.5 -10.5 52.5 q0 28 11 53 q11 25 29.5 43 q18.5 18 43 28.5 q24.5 10.5 51.5 10.5 q56 0 95 -40 ZM309 562 q-21 24 -52 24 q-15 0 -29 -6.5 q-14 -6.5 -24 -18 q-10 -11.5 -16 -26 q-6 -14.5 -6 -30.5 q0 -32 21.5 -56 q21.5 -24 52.5 -24 q32 0 53.5 24 q21.5 24 21.5 56 q0 32 -22 57 Z" /><glyph glyph-name="plusminus" unicode="±" d="M46 80 l411 0 l0 -63 l-411 0 l0 63 ZM222 575 l63 0 l0 -171 l171 0 l0 -61 l-171 0 l0 -188 l-63 0 l0 188 l-177 0 l0 61 l177 0 l0 171 Z" /><glyph glyph-name="twosuperior" unicode="²" d="M111 554 q23 39 62 61 q39 22 91 22 q25 0 48 -8.5 q23 -8.5 41 -23.5 q18 -15 28.5 -36 q10.5 -21 10.5 -46 q0 -20 -5 -35 q-5 -15 -17 -30 q-12 -15 -34 -32.5 q-22 -17.5 -56 -42.5 q-26 -20 -47.5 -38.5 q-21.5 -18.5 -38.5 -37.5 l182 0 q5 0 10.5 4.5 q5.5 4.5 10.5 4.5 l3 0 l0 -63 l-279 0 l0 44 q27 36 56.5 65 q29.5 29 74.5 63 l28 22 q26 20 38.5 40.5 q12.5 20.5 12.5 37.5 q0 25 -20 43 q-20 18 -51 18 q-59 0 -92 -42 q-3 -4 -5.5 -10.5 q-2.5 -6.5 -4.5 -10.5 l-47 31 Z" /><glyph glyph-name="threesuperior" unicode="³" d="M258 638 q27 0 51 -8.5 q24 -8.5 42 -23.5 q18 -15 28 -34.5 q10 -19.5 10 -41.5 q0 -27 -16 -48.5 q-16 -21.5 -41 -29.5 q32 -5 53 -29.5 q21 -24.5 21 -56.5 q0 -24 -12.5 -44.5 q-12.5 -20.5 -33 -36.5 q-20.5 -16 -48 -25 q-27.5 -9 -57.5 -9 q-86 0 -143 65 l47 52 q4 -5 6.5 -14.5 q2.5 -9.5 7.5 -13.5 q33 -33 76 -33 q43 0 69 19 q26 19 26 46 q0 26 -23.5 40.5 q-23.5 14.5 -64.5 14.5 q-8 0 -15 -0.5 q-7 -0.5 -15 -1.5 l0 51 q5 -1 10 -1 q5 0 10 0 q45 0 64 15 q19 15 19 37 q0 22 -21 40 q-21 18 -53 18 q-57 0 -94 -46 l-36 37 q53 62 133 62 Z" /><glyph glyph-name="acute" unicode="´" d="M292 699 l63 -42 l-101 -135 l-50 30 l88 147 Z" /><glyph glyph-name="mu" unicode="µ" d="M372 116 q0 -69 40 -69 q14 0 28.5 12 q14.5 12 20.5 25 l6 12 l27 -51 q-37 -55 -88 -55 q-32 0 -55 22.5 q-23 22.5 -27 54.5 q-17 -39 -51.5 -58 q-34.5 -19 -71.5 -19 q-37 0 -68.5 17.5 q-31.5 17.5 -45.5 52.5 q0 -57 0 -113.5 q0 -56.5 -1 -113.5 l-62 0 q0 14 1.5 42 q1.5 28 4 63 q2.5 35 5 74 q2.5 39 4.5 75 q2 36 3.5 66.5 q1.5 30.5 1.5 48.5 l0 255 l66 0 l0 -271 q0 -42 8 -68.5 q8 -26.5 21.5 -42.5 q13.5 -16 31 -23 q17.5 -7 36.5 -9 q19 2 37 10.5 q18 8.5 32.5 25 q14.5 16.5 23 42.5 q8.5 26 8.5 62 l0 9 l0 265 l64 0 l0 -341 Z" /><glyph glyph-name="paragraph" unicode="¶" d="M436 665 l0 -733 l-58 0 l0 676 l-76 0 l0 -676 l-59 0 l0 390 q-38 2 -70.5 17 q-32.5 15 -56.5 38.5 q-24 23.5 -38 54 q-14 30.5 -14 64.5 q0 34 12.5 65 q12.5 31 42 54.5 q29.5 23.5 76.5 36.5 q47 13 116 13 l125 0 Z" /><glyph glyph-name="periodcentered" unicode="·" d="M280 371 q18 -17 18 -40 q0 -23 -17.5 -40 q-17.5 -17 -42.5 -17 q-25 0 -42 16.5 q-17 16.5 -17 40.5 q0 24 18 40.5 q18 16.5 41 16.5 q23 0 42 -17 Z" /><glyph glyph-name="cedilla" unicode="¸" d="M327 -109 q0 24 -47 24 l-30 0 l11 85 l44 0 l-6 -47 l17 -1 q68 -5 68 -55 q0 -28 -28.5 -51 q-28.5 -23 -87.5 -23 q-59 0 -111 37 l25 42 q43 -36 99 -36 q26 0 36 7.5 q10 7.5 10 17.5 Z" /><glyph glyph-name="onesuperior" unicode="¹" d="M299 633 l0 -380 l-64 0 l0 300 l-97 -25 l-16 31 l133 74 l44 0 Z" /><glyph glyph-name="ordmasculine" unicode="º" d="M96 434 q0 42 12.5 76.5 q12.5 34.5 33.5 59 q21 24.5 49 38.5 q28 14 58 14 q31 0 58 -12 q27 -12 47 -35 q20 -23 31.5 -56.5 q11.5 -33.5 11.5 -77.5 q0 -43 -12.5 -77.5 q-12.5 -34.5 -33.5 -58.5 q-21 -24 -48.5 -36.5 q-27.5 -12.5 -57.5 -12.5 q-31 0 -58 13 q-27 13 -47.5 36.5 q-20.5 23.5 -32 56 q-11.5 32.5 -11.5 72.5 ZM247 566 q-37 0 -64 -34 q-27 -34 -27 -94 q0 -60 27 -92 q27 -32 63 -32 q37 0 64 31.5 q27 31.5 27 91.5 q0 61 -26.5 95 q-26.5 34 -63.5 34 ZM76 206 l349 0 l0 -54 l-349 0 l0 54 Z" /><glyph glyph-name="guillemotright" unicode="»" d="M265 253 l0 -23 l-158 -169 l-40 40 l128 140 l-121 118 l39 41 l152 -147 ZM446 253 l0 -23 l-158 -169 l-39 40 l127 140 l-121 118 l39 41 l152 -147 Z" /><glyph glyph-name="onequarter" unicode="¼" d="M76 -16 l313 681 l48 -27 l-314 -680 l-47 26 ZM396 242 l31 0 l0 -197 l50 0 l0 -37 l-50 0 l0 -78 l-46 0 l0 78 l-145 0 l0 29 l160 205 ZM382 164 l-94 -119 l94 0 l0 119 ZM146 677 l0 -303 l-51 0 l0 240 l-77 -20 l-13 25 l107 58 l34 0 Z" /><glyph glyph-name="onehalf" unicode="½" d="M76 -16 l313 681 l48 -27 l-314 -680 l-47 26 ZM263 168 q19 32 50.5 49.5 q31.5 17.5 75.5 17.5 q21 0 38.5 -7.5 q17.5 -7.5 31 -20.5 q13.5 -13 21 -29.5 q7.5 -16.5 7.5 -34.5 q0 -16 -3.5 -28 q-3.5 -12 -13 -24 q-9.5 -12 -27 -26 q-17.5 -14 -45.5 -34 q-44 -32 -69 -60 l146 0 q4 0 9 3.5 q5 3.5 10 3.5 l0 -51 l-224 0 l0 35 q18 24 44 50.5 q26 26.5 61 52.5 l23 17 q41 35 41 58 q0 25 -16.5 39.5 q-16.5 14.5 -43.5 14.5 q-46 0 -71 -34 q-3 -3 -4.5 -8.5 q-1.5 -5.5 -3.5 -8.5 l-37 25 ZM146 677 l0 -303 l-51 0 l0 240 l-77 -20 l-13 25 l107 58 l34 0 Z" /><glyph glyph-name="threequarters" unicode="¾" d="M81 -16 l313 681 l48 -27 l-314 -680 l-47 26 ZM128 684 q22 0 41 -7 q19 -7 33 -18.5 q14 -11.5 22 -27 q8 -15.5 8 -33.5 q0 -22 -12.5 -39 q-12.5 -17 -32.5 -24 q26 -4 42.5 -23.5 q16.5 -19.5 16.5 -44.5 q0 -20 -10 -36.5 q-10 -16.5 -26.5 -29.5 q-16.5 -13 -38.5 -20 q-22 -7 -46 -7 q-68 0 -114 52 l38 42 q3 -4 5 -11.5 q2 -7.5 6 -11.5 q14 -14 30 -20 q16 -6 33 -6 q29 0 51.5 14.5 q22.5 14.5 22.5 33.5 q0 24 -16.5 36 q-16.5 12 -54.5 12 q-6 0 -12 0 q-6 0 -12 -1 l0 40 q5 -2 11 -1.5 q6 0.5 11 0.5 q32 0 46.5 12.5 q14.5 12.5 14.5 28.5 q0 17 -16 32.5 q-16 15.5 -44 15.5 q-45 0 -74 -38 l-29 30 q42 50 106 50 ZM396 242 l31 0 l0 -197 l50 0 l0 -37 l-50 0 l0 -78 l-46 0 l0 78 l-145 0 l0 29 l160 205 ZM382 164 l-94 -119 l94 0 l0 119 Z" /><glyph glyph-name="questiondown" unicode="¿" d="M198 567 q-17 16 -17 41 q0 24 18 40.5 q18 16.5 41 16.5 q23 0 41.5 -17 q18.5 -17 18.5 -40 q0 -23 -17.5 -40 q-17.5 -17 -42.5 -17 q-25 0 -42 16 ZM438 91 q-32 -49 -84 -76.5 q-52 -27.5 -109 -27.5 q-42 0 -75 14 q-33 14 -56 38 q-23 24 -35 56 q-12 32 -12 68 q0 52 23.5 85.5 q23.5 33.5 53.5 58.5 l22 18 q28 23 36 46 q8 23 8 55 l0 42 l65 0 l0 -42 q0 -23 -1.5 -39.5 q-1.5 -16.5 -8 -32.5 q-6.5 -16 -20 -34 q-13.5 -18 -36.5 -42 q-36 -38 -49.5 -64.5 q-13.5 -26.5 -13.5 -55.5 q0 -22 8.5 -41.5 q8.5 -19.5 22.5 -33.5 q14 -14 32.5 -22.5 q18.5 -8.5 38.5 -8.5 q42 0 78.5 23.5 q36.5 23.5 60.5 63.5 l51 -48 Z" /><glyph glyph-name="Aring" unicode="å" d="M241 753 q-17 0 -29.5 -13 q-12.5 -13 -12.5 -33 q0 -19 12.5 -32 q12.5 -13 29.5 -13 q17 0 29 13 q12 13 12 32 q0 20 -12 33 q-12 13 -29 13 ZM326 236 l-88 238 l-80 -238 l168 0 ZM248 619 l235 -619 l-72 0 l-69 182 l-198 0 l-60 -183 l-69 0 l215 620 q-35 4 -58.5 29 q-23.5 25 -23.5 60 q0 18 7 33.5 q7 15.5 19.5 27.5 q12.5 12 29.5 19 q17 7 36 7 q19 0 35.5 -7 q16.5 -7 29 -19 q12.5 -12 19.5 -27.5 q7 -15.5 7 -33.5 q0 -35 -23.5 -60.5 q-23.5 -25.5 -59.5 -28.5 Z" /><glyph glyph-name="AE" unicode="æ" d="M200 624 l284 0 l0 -62 l-171 0 l0 -205 l145 0 l0 -64 l-145 0 l0 -231 l169 0 l0 -62 l-230 0 l0 169 l-130 0 l-54 -169 l-64 0 l196 624 ZM252 562 l-11 0 l-105 -335 l116 0 l0 335 Z" /><glyph glyph-name="Ccedilla" unicode="ç" d="M327 -109 q0 24 -47 24 l-30 0 l10 75 q-42 4 -81.5 24 q-39.5 20 -70.5 58 q-31 38 -49 95.5 q-18 57.5 -18 135.5 q0 96 23 159 q23 63 57.5 99.5 q34.5 36.5 76 51.5 q41.5 15 78.5 15 q31 0 60.5 -9 q29.5 -9 55 -25 q25.5 -16 45.5 -38.5 q20 -22.5 32 -50.5 l-67 -33 q-4 3 -4 10 q0 12 -3 18 q-20 33 -52 52.5 q-32 19.5 -68 19.5 q-34 0 -64 -17.5 q-30 -17.5 -52.5 -51 q-22.5 -33.5 -36 -81.5 q-13.5 -48 -13.5 -109 q0 -59 13 -107.5 q13 -48.5 36.5 -83 q23.5 -34.5 55 -53.5 q31.5 -19 67.5 -19 q37 0 71.5 20.5 q34.5 20.5 55.5 55.5 l52 -34 q-26 -42 -67 -68.5 q-41 -26.5 -89 -32.5 l-5 -38 l17 -1 q68 -5 68 -55 q0 -28 -28.5 -51 q-28.5 -23 -87.5 -23 q-59 0 -111 37 l25 42 q43 -36 99 -36 q26 0 36 7.5 q10 7.5 10 17.5 Z" /><glyph glyph-name="Eth" unicode="ð" d="M79 623 l139 0 q68 0 114.5 -23 q46.5 -23 76 -64.5 q29.5 -41.5 43.5 -100 q14 -58.5 14 -129.5 q0 -45 -10 -89.5 q-10 -44.5 -28.5 -83 q-18.5 -38.5 -46 -69 q-27.5 -30.5 -62.5 -46.5 q-39 -19 -113 -19 l-127 0 l0 302 l-49 0 l0 58 l49 0 l0 264 ZM143 301 l0 -244 l60 0 q96 0 146 65.5 q50 65.5 50 183.5 q0 120 -44.5 189 q-44.5 69 -140.5 69 l-71 0 l0 -205 l105 0 l0 -58 l-105 0 Z" /><glyph glyph-name="multiply" unicode="×" d="M382 503 l48 -44 l-130 -134 l127 -134 l-46 -46 l-127 133 l-125 -129 l-44 44 l126 131 l-126 133 l47 46 l124 -131 l126 131 Z" /><glyph glyph-name="Oslash" unicode="ø" d="M150 513 q-23 -26 -37.5 -75.5 q-14.5 -49.5 -14.5 -115.5 q0 -110 34 -177 l204 383 q-38 36 -84 36 q-26 0 -52 -12.5 q-26 -12.5 -50 -38.5 ZM413 545 q58 -79 58 -235 q0 -92 -19 -153 q-19 -61 -50 -98.5 q-31 -37.5 -70 -53 q-39 -15.5 -78 -15.5 q-29 0 -58.5 9.5 q-29.5 9.5 -57.5 30.5 l-50 -93 l-52 27 l59 110 q-66 85 -66 239 q0 71 16 129.5 q16 58.5 45.5 100 q29.5 41.5 71 64.5 q41.5 23 92.5 23 q30 0 59.5 -10 q29.5 -10 55.5 -30 l46 87 l54 -29 l-56 -103 ZM374 472 l-203 -380 q37 -33 77 -33 q75 0 114 62.5 q39 62.5 39 192.5 q0 99 -27 158 Z" /><glyph glyph-name="Thorn" unicode="þ" d="M59 623 l78 0 q2 -2 2 -3 q0 -3 -4 -9.5 q-4 -6.5 -6 -15.5 l0 -89 l130 0 q52 0 88.5 -14 q36.5 -14 60 -38 q23.5 -24 35 -56 q11.5 -32 13.5 -68 q-2 -36 -13.5 -67.5 q-11.5 -31.5 -34 -54.5 q-22.5 -23 -58 -36.5 q-35.5 -13.5 -86.5 -13.5 l-135 0 l0 -158 l-70 0 l0 623 ZM129 440 l0 -221 l135 0 q32 0 54 8.5 q22 8.5 36.5 23 q14.5 14.5 21 34.5 q6.5 20 8.5 43 q-2 23 -9.5 43.5 q-7.5 20.5 -22.5 35.5 q-15 15 -38.5 24 q-23.5 9 -56.5 9 l-128 0 Z" /><glyph glyph-name="germandbls" unicode="ß" d="M55 0 l0 423 q0 124 50 185 q50 61 134 61 q37 0 70 -14.5 q33 -14.5 57.5 -38.5 q24.5 -24 39 -56 q14.5 -32 14.5 -67 q0 -43 -21 -79 q-21 -36 -58 -55 q28 -9 51 -26 q23 -17 39 -40.5 q16 -23.5 24.5 -52 q8.5 -28.5 8.5 -59.5 q0 -41 -14 -75.5 q-14 -34.5 -39 -60.5 q-25 -26 -58 -40.5 q-33 -14.5 -72 -14.5 q-58 0 -104 31 l35 56 q30 -24 73 -24 q21 0 41.5 10.5 q20.5 10.5 36.5 27 q16 16.5 25.5 38 q9.5 21.5 9.5 44.5 q-2 34 -11.5 62 q-9.5 28 -27.5 47.5 q-18 19.5 -46.5 30 q-28.5 10.5 -68.5 10.5 l-30 0 l0 57 l36 0 q18 0 36.5 7 q18.5 7 33 22 q14.5 15 23.5 37.5 q9 22.5 9 54.5 q0 21 -8.5 41 q-8.5 20 -24 35.5 q-15.5 15.5 -36.5 24.5 q-21 9 -46 9 q-27 0 -48 -13.5 q-21 -13.5 -36 -38 q-15 -24.5 -22.5 -58.5 q-7.5 -34 -7.5 -76 l0 -425 l-68 0 Z" /><glyph glyph-name="ae" unicode="æ" d="M31 412 q43 55 116 55 q36 0 65.5 -16.5 q29.5 -16.5 45.5 -45.5 q17 29 45.5 45.5 q28.5 16.5 58.5 16.5 q68 0 98 -53 q30 -53 30 -146 l0 -38 l-208 -7 l0 -48 q0 -58 28 -93 q28 -35 76 -35 q46 0 73 37 l35 -42 q-44 -53 -114 -53 q-38 0 -71.5 18.5 q-33.5 18.5 -53.5 50.5 q-17 -32 -47 -50.5 q-30 -18.5 -66 -18.5 q-29 0 -53.5 12 q-24.5 12 -42 31 q-17.5 19 -27 43 q-9.5 24 -9.5 48 q0 69 51 110.5 q51 41.5 137 44.5 l23 1 l0 26 q0 49 -22 77.5 q-22 28.5 -57 28.5 q-45 0 -76 -43 l-35 44 ZM221 219 l-22 -1 q-37 -2 -61 -9.5 q-24 -7.5 -38.5 -20 q-14.5 -12.5 -20 -29.5 q-5.5 -17 -5.5 -37 q0 -14 6 -26.5 q6 -12.5 16 -23 q10 -10.5 22.5 -16.5 q12.5 -6 25.5 -6 q43 0 60.5 26.5 q17.5 26.5 17.5 81.5 q0 6 -0.5 11.5 q-0.5 5.5 -0.5 11.5 l0 38 ZM282 279 l150 5 l0 21 q0 49 -18.5 77.5 q-18.5 28.5 -51.5 28.5 q-36 0 -58 -33 q-22 -33 -22 -82 l0 -17 Z" /><glyph glyph-name="ccedilla" unicode="ç" d="M327 -109 q0 24 -47 24 l-30 0 l10 75 q-44 4 -81.5 23.5 q-37.5 19.5 -64.5 51 q-27 31.5 -42.5 74 q-15.5 42.5 -15.5 92.5 q0 49 17 92 q17 43 47.5 75 q30.5 32 73 50 q42.5 18 92.5 18 q54 0 98.5 -22.5 q44.5 -22.5 72.5 -62.5 l-51 -59 q-5 3 -5.5 6.5 q-0.5 3.5 0 9.5 q0.5 6 -6.5 15 q-7 9 -25 24 q-34 28 -93 28 q-29 0 -55.5 -12 q-26.5 -12 -46.5 -34.5 q-20 -22.5 -32 -54 q-12 -31.5 -12 -70.5 q0 -39 12 -72 q12 -33 33 -57 q21 -24 50 -37.5 q29 -13.5 64 -13.5 q69 0 119 56 l42 -49 q-59 -63 -146 -71 l-5 -37 l17 -1 q68 -5 68 -55 q0 -28 -28.5 -51 q-28.5 -23 -87.5 -23 q-59 0 -111 37 l25 42 q43 -36 99 -36 q26 0 36 7.5 q10 7.5 10 17.5 Z" /><glyph glyph-name="eth" unicode="ð" d="M256 50 q25 0 48.5 10.5 q23.5 10.5 42 33 q18.5 22.5 29.5 56.5 q11 34 11 82 q0 48 -12 81.5 q-12 33.5 -31.5 54 q-19.5 20.5 -43 29.5 q-23.5 9 -47.5 9 q-24 0 -48.5 -11 q-24.5 -11 -44 -33 q-19.5 -22 -31.5 -54.5 q-12 -32.5 -12 -75.5 q0 -41 11 -74.5 q11 -33.5 29.5 -57.5 q18.5 -24 44 -37 q25.5 -13 54.5 -13 ZM347 570 q113 -128 113 -317 q0 -60 -13.5 -109 q-13.5 -49 -39 -83.5 q-25.5 -34.5 -64 -53.5 q-38.5 -19 -87.5 -19 q-44 0 -83 17.5 q-39 17.5 -68.5 49 q-29.5 31.5 -47 74.5 q-17.5 43 -17.5 94 q0 50 17 94.5 q17 44.5 45.5 77.5 q28.5 33 65 52.5 q36.5 19.5 74.5 19.5 q78 0 127 -52 q-16 38 -37 72.5 q-21 34.5 -49 64.5 l-128 -36 l-18 48 l104 28 q-45 38 -102 64 l81 16 q45 -25 87 -62 l108 29 l17 -44 l-85 -25 Z" /><glyph glyph-name="divide" unicode="÷" d="M71 348 l360 0 l0 -67 l-360 0 l0 67 ZM287 498 q13 -15 13 -32 q0 -18 -13 -31 q-13 -13 -32 -13 q-18 0 -31 13 q-13 13 -13 31 q0 19 13.5 32.5 q13.5 13.5 30.5 13.5 q18 0 32 -14 ZM287 190 q13 -15 13 -32 q0 -18 -13 -31 q-13 -13 -31 -13 q-18 0 -32 12.5 q-14 12.5 -14 31.5 q0 20 14.5 33 q14.5 13 31.5 13 q17 0 31 -14 Z" /><glyph glyph-name="oslash" unicode="ø" d="M252 406 q-27 0 -51.5 -12.5 q-24.5 -12.5 -43.5 -35 q-19 -22.5 -30 -54 q-11 -31.5 -11 -69.5 q0 -76 34 -125 l154 283 q-25 13 -52 13 ZM386 417 q74 -68 74 -184 q0 -58 -16 -103.5 q-16 -45.5 -44 -77 q-28 -31.5 -65.5 -48 q-37.5 -16.5 -79.5 -16.5 q-50 0 -93 22 l-40 -74 l-52 27 l44 81 q-74 71 -74 177 q0 54 17.5 99 q17.5 45 47 77.5 q29.5 32.5 69 51 q39.5 18.5 83.5 18.5 q39 0 78 -17 l37 69 l53 -29 l-39 -73 ZM351 354 l-157 -287 q29 -17 61 -17 q27 0 51 12 q24 12 42.5 34.5 q18.5 22.5 29 54.5 q10.5 32 10.5 72 q0 82 -37 131 Z" /><glyph glyph-name="thorn" unicode="þ" d="M60 665 l80 0 q0 -7 -3.5 -16 q-3.5 -9 -3.5 -17 l0 -245 q23 37 61.5 58.5 q38.5 21.5 77.5 21.5 q38 0 72.5 -14.5 q34.5 -14.5 61 -43.5 q26.5 -29 42 -73 q15.5 -44 15.5 -104 q0 -60 -16.5 -106 q-16.5 -46 -43.5 -76.5 q-27 -30.5 -61.5 -46 q-34.5 -15.5 -70.5 -15.5 q-42 0 -78 19 q-36 19 -59 53 l0 -227 l-74 0 l0 832 ZM133 190 q2 -74 34 -106 q32 -32 79 -32 q25 0 50 8 q25 8 45.5 27.5 q20.5 19.5 33.5 51.5 q13 32 13 80 q0 88 -36.5 137.5 q-36.5 49.5 -102.5 49.5 q-20 0 -41 -7 q-21 -7 -37.5 -24 q-16.5 -17 -27 -45.5 q-10.5 -28.5 -10.5 -70.5 l0 -69 Z" /><glyph glyph-name="Aogonek" unicode="&#x104;" d="M326 236 l-88 238 l-80 -238 l168 0 ZM15 -1 l220 635 l8 0 l241 -634 q-84 -75 -84 -102 q0 -12 8 -20 q8 -8 20 -8 q29 0 58 23 l0 -46 q-28 -23 -67 -23 q-40 0 -60.5 17.5 q-20.5 17.5 -20.5 43.5 q0 50 80 115 l-7 0 l-69 182 l-198 0 l-60 -183 l-69 0 Z" /><glyph glyph-name="aogonek" unicode="&#x105;" d="M369 214 l-17 0 q-14 0 -26.5 0.5 q-12.5 0.5 -24.5 0.5 q-55 0 -90 -7.5 q-35 -7.5 -55 -20.5 q-20 -13 -27.5 -29.5 q-7.5 -16.5 -7.5 -35.5 q0 -32 28 -55 q28 -23 69 -23 q30 0 54 9.5 q24 9.5 42 23 q18 13.5 29.5 28.5 q11.5 15 15.5 25 q10 25 10 54 l0 30 ZM91 403 q61 64 163 64 q84 0 132.5 -42.5 q48.5 -42.5 48.5 -141.5 l-1 -283 q-84 -75 -84 -102 q0 -12 8 -20 q8 -8 20 -8 q29 0 58 23 l0 -46 q-28 -23 -67 -23 q-40 0 -60.5 17.5 q-20.5 17.5 -20.5 43.5 q0 50 80 115 l-1 50 q-74 -61 -164 -61 q-36 0 -64.5 11 q-28.5 11 -49 29 q-20.5 18 -30.5 41 q-10 23 -10 46 q0 68 59.5 108.5 q59.5 40.5 171.5 44.5 l86 0 l0 17 q0 68 -28.5 95 q-28.5 27 -88.5 27 q-74 0 -123 -51 l-35 46 Z" /><glyph glyph-name="dcaron" unicode="&#x10f;" d="M309 390 l0 275 l68 0 l0 -623 q0 -27 4 -42 l-71 0 q-4 12 -4 34 l0 39 q-22 -37 -57 -60 q-35 -23 -77 -23 q-37 0 -68.5 18.5 q-31.5 18.5 -54.5 50.5 q-23 32 -36 76.5 q-13 44.5 -13 97.5 q0 53 14.5 96.5 q14.5 43.5 39.5 74.5 q25 31 58 48 q33 17 69 17 q42 0 76 -21.5 q34 -21.5 52 -57.5 ZM185 410 q-25 0 -46 -13 q-21 -13 -36.5 -36 q-15.5 -23 -24 -54 q-8.5 -31 -8.5 -67 q0 -36 8 -69.5 q8 -33.5 23.5 -59.5 q15.5 -26 37.5 -42 q22 -16 49 -16 q17 0 37 8 q20 8 37.5 26.5 q17.5 18.5 29 48.5 q11.5 30 11.5 74 q0 31 -0.5 51.5 q-0.5 20.5 -2 34.5 q-1.5 14 -5 25.5 q-3.5 11.5 -9.5 25.5 q-6 13 -17 24.5 q-11 11.5 -25 20 q-14 8.5 -29 13.5 q-15 5 -30 5 ZM509 605 q0 -65 -85 -151 l-28 24 q23 21 37.5 45.5 q14.5 24.5 14.5 39.5 q0 7 -6.5 14 q-6.5 7 -14 13.5 q-7.5 6.5 -14 14.5 q-6.5 8 -6.5 19 q0 20 13.5 33.5 q13.5 13.5 34.5 13.5 q21 0 37.5 -18.5 q16.5 -18.5 16.5 -47.5 Z" /><glyph glyph-name="Dcroat" unicode="&#x110;" d="M79 623 l139 0 q68 0 114.5 -23 q46.5 -23 76 -64.5 q29.5 -41.5 43.5 -100 q14 -58.5 14 -129.5 q0 -45 -10 -89.5 q-10 -44.5 -28.5 -83 q-18.5 -38.5 -46 -69 q-27.5 -30.5 -62.5 -46.5 q-39 -19 -113 -19 l-127 0 l0 302 l-49 0 l0 58 l49 0 l0 264 ZM143 301 l0 -244 l60 0 q96 0 146 65.5 q50 65.5 50 183.5 q0 120 -44.5 189 q-44.5 69 -140.5 69 l-71 0 l0 -205 l105 0 l0 -58 l-105 0 Z" /><glyph glyph-name="dcroat" unicode="&#x111;" d="M151 376 q-43 -39 -43 -132 q0 -86 35 -138.5 q35 -52.5 95 -52.5 q19 0 34 6 q15 6 30 16.5 q15 10.5 27 25.5 q12 15 18 34 q11 36 11 96 q0 38 -3 63.5 q-3 25.5 -9.5 43.5 q-6.5 18 -16.5 29.5 q-10 11.5 -25 20.5 q-18 11 -33.5 16.5 q-15.5 5.5 -29.5 5.5 q-29 0 -49.5 -8 q-20.5 -8 -40.5 -26 ZM432 544 l0 -502 q0 -24 5 -42 l-72 0 q-4 12 -4 34 l0 39 q-22 -38 -60 -60.5 q-38 -22.5 -77 -22.5 q-38 0 -71.5 15 q-33.5 15 -59 45.5 q-25.5 30.5 -40.5 76 q-15 45.5 -15 106.5 q0 63 17 107.5 q17 44.5 44.5 73 q27.5 28.5 61.5 42 q34 13.5 69 13.5 q48 0 82.5 -21.5 q34.5 -21.5 51.5 -57.5 l0 154 l-76 0 l0 53 l76 0 l0 68 l77 0 q0 -6 -4.5 -13.5 q-4.5 -7.5 -4.5 -14.5 l0 -40 l44 0 l0 -53 l-44 0 Z" /><glyph glyph-name="Eogonek" unicode="&#x118;" d="M59 624 l382 0 l0 -62 l-316 0 l0 -205 l261 0 l0 -64 l-261 0 l0 -231 l313 0 l-1 -62 q-84 -75 -84 -102 q0 -12 8 -20 q8 -8 19 -8 q30 0 58 23 l0 -46 q-26 -23 -66 -23 q-40 0 -60.5 17.5 q-20.5 17.5 -20.5 43.5 q0 51 79 115 l-311 0 l0 624 Z" /><glyph glyph-name="eogonek" unicode="&#x119;" d="M259 468 q36 0 70 -13 q34 -13 59.5 -39.5 q25.5 -26.5 41 -67.5 q15.5 -41 15.5 -97 q0 -8 -0.5 -16.5 q-0.5 -8.5 -1.5 -16.5 l-325 0 q2 -48 16.5 -80.5 q14.5 -32.5 36.5 -52.5 q22 -20 49 -28.5 q27 -8.5 54 -8.5 q71 0 118 51 l40 -39 l-56 -68 q-16 -19 -24.5 -32 q-8.5 -13 -12.5 -22 q-4 -9 -4.5 -16 q-0.5 -7 -0.5 -14 q0 -14 9.5 -24 q9.5 -10 28.5 -10 q11 0 23.5 4 q12.5 4 28.5 14 l-1 -49 q-15 -10 -31 -14 q-16 -4 -32 -4 q-37 0 -61.5 20 q-24.5 20 -24.5 54 q0 47 56 100 q-35 -9 -69 -9 q-46 0 -84.5 16 q-38.5 16 -67 47 q-28.5 31 -44.5 75 q-16 44 -16 101 q0 56 16 100.5 q16 44.5 45 75 q29 30.5 67 47 q38 16.5 82 16.5 ZM121 274 l251 0 q0 4 0.5 7.5 q0.5 3.5 0.5 8.5 q0 25 -9.5 47.5 q-9.5 22.5 -25.5 39 q-16 16.5 -37.5 26.5 q-21.5 10 -46.5 10 q-47 0 -85 -33.5 q-38 -33.5 -48 -105.5 Z" /><glyph glyph-name="dotlessi" unicode="&#x131;" d="M106 457 l183 0 l0 -399 l107 0 l0 -58 l-296 0 l0 58 l117 0 l0 341 l-111 0 l0 58 Z" /><glyph glyph-name="kgreenlandic" unicode="&#x138;" d="M66 457 l82 0 q2 -2 2 -2 q0 -3 -4.5 -9.5 q-4.5 -6.5 -6.5 -14.5 l0 -184 l229 212 q23 -5 53 -5 l26 0 l-192 -181 l224 -274 l-93 -3 l-187 233 l-60 -56 l0 -174 l-73 0 l0 458 Z" /><glyph glyph-name="Lslash" unicode="&#x141;" d="M73 623 l81 0 q2 0 2 -2 q0 -4 -4 -12.5 q-4 -8.5 -6 -19.5 l0 -261 l166 54 q8 3 14.5 5.5 q6.5 2.5 10.5 4.5 l0 -64 l-191 -61 l0 -207 l300 0 l0 -61 l-373 0 l0 244 l-53 -17 l0 61 l53 18 l0 318 Z" /><glyph glyph-name="lslash" unicode="&#x142;" d="M85 665 l202 0 l0 -295 l64 23 q6 2 12.5 5.5 q6.5 3.5 14.5 8.5 l0 -73 l-91 -31 l0 -245 l134 0 l0 -58 l-342 0 l0 58 l135 0 l0 221 l-79 -27 l0 66 l79 27 l0 262 l-129 0 l0 58 Z" /><glyph glyph-name="Eng" unicode="&#x14a;" d="M300 52 q78 0 78 118 l0 252 q0 83 -29 116 q-29 33 -75 33 q-27 0 -54 -11.5 q-27 -11.5 -48.5 -32.5 q-21.5 -21 -34.5 -50 q-13 -29 -13 -64 l0 -413 l-73 0 l0 623 l73 0 l0 -81 q27 42 70 67 q43 25 91 25 q37 0 67 -12.5 q30 -12.5 51.5 -38 q21.5 -25.5 33.5 -65 q12 -39.5 12 -94.5 l0 -249 q0 -94 -41 -140 q-41 -46 -111 -46 q-46 0 -87 25 l35 62 q3 -2 6 -6 q12 -18 49 -18 Z" /><glyph glyph-name="eng" unicode="&#x14b;" d="M68 0 l0 457 l74 0 l0 -81 q26 42 66.5 67 q40.5 25 82.5 25 q30 0 56 -10.5 q26 -10.5 45 -33.5 q19 -23 29.5 -59 q10.5 -36 10.5 -88 l0 -221 q0 -122 -48.5 -177 q-48.5 -55 -121.5 -55 q-26 0 -50.5 8.5 q-24.5 8.5 -46.5 25.5 l34 67 q4 -1 6 -6.5 q2 -5.5 7.5 -11 q5.5 -5.5 19 -11 q13.5 -5.5 32.5 -5.5 q97 0 97 154 l0 230 q0 72 -24.5 101 q-24.5 29 -59.5 29 q-23 0 -47 -10 q-24 -10 -44.5 -28.5 q-20.5 -18.5 -32 -44.5 q-11.5 -26 -11.5 -59 l0 -263 l-74 0 Z" /><glyph glyph-name="OE" unicode="&#x152;" d="M253 595 l0 29 l231 0 l0 -62 l-169 0 l0 -205 l143 0 l0 -64 l-143 0 l0 -231 l167 0 l0 -62 l-230 0 l0 31 q-17 -20 -37 -29 q-20 -9 -43 -9 q-75 0 -119 77.5 q-44 77.5 -44 241.5 q0 159 43 239.5 q43 80.5 121 80.5 q21 0 41.5 -8.5 q20.5 -8.5 38.5 -28.5 ZM171 574 q-20 0 -37 -12.5 q-17 -12.5 -31.5 -42.5 q-14.5 -30 -22 -80 q-7.5 -50 -7.5 -126 q0 -123 27.5 -191 q27.5 -68 78.5 -68 q26 0 46 21 q20 21 27 54 l0 356 q-6 17 -13.5 33 q-7.5 16 -17.5 28.5 q-10 12.5 -22.5 20 q-12.5 7.5 -27.5 7.5 Z" /><glyph glyph-name="oe" unicode="&#x153;" d="M161 466 q60 0 94 -46 q39 46 101 46 q63 0 98.5 -46 q35.5 -46 35.5 -137 l0 -62 l-228 0 q1 -54 7.5 -88 q6.5 -34 20 -52 q13.5 -18 31 -26 q17.5 -8 42.5 -8 q61 0 96 38 l35 -43 q-53 -54 -122 -54 q-69 0 -119 41 q-44 -40 -99 -40 q-25 0 -51 10.5 q-26 10.5 -47.5 37 q-21.5 26.5 -35.5 73 q-14 46.5 -14 118.5 q0 66 12.5 111.5 q12.5 45.5 35 73.5 q22.5 28 49.5 40.5 q27 12.5 58 12.5 ZM263 278 l168 0 l0 9 q0 72 -23 98 q-23 26 -65 26 q-37 0 -58.5 -32 q-21.5 -32 -21.5 -92 l0 -9 ZM161 406 q-18 0 -34.5 -9 q-16.5 -9 -30.5 -29 q-14 -20 -22 -51.5 q-8 -31.5 -8 -77.5 q0 -96 26 -142.5 q26 -46.5 71 -46.5 q20 0 35 10.5 q15 10.5 15 28.5 q0 3 -3 23 q-6 35 -8 67 q-2 32 -2 59 q0 58 4.5 87.5 q4.5 29.5 4.5 36.5 q0 19 -14 31.5 q-14 12.5 -34 12.5 Z" /><glyph glyph-name="Scedilla" unicode="&#x15e;" d="M295 -109 q0 24 -47 24 l-30 0 l10 75 q-109 7 -176 80 l41 72 q5 -3 5 -10 q0 -7 3 -11 q23 -29 62 -48.5 q39 -19.5 94 -19.5 q28 0 51.5 9.5 q23.5 9.5 40.5 25 q17 15.5 27 37 q10 21.5 10 45.5 q0 21 -5.5 35.5 q-5.5 14.5 -21.5 27.5 q-16 13 -43.5 27 q-27.5 14 -72.5 32 q-49 19 -81.5 38.5 q-32.5 19.5 -52.5 39.5 q-20 20 -28.5 43 q-8.5 23 -8.5 50 q0 34 14.5 64 q14.5 30 40 52.5 q25.5 22.5 60.5 35 q35 12.5 75 12.5 q51 0 96 -20.5 q45 -20.5 77 -57.5 l-44 -60 q-5 2 -5.5 8.5 q-0.5 6.5 -2.5 9.5 q-19 28 -51.5 45 q-32.5 17 -80.5 17 q-46 0 -76.5 -27 q-30.5 -27 -30.5 -64 q0 -22 7 -38.5 q7 -16.5 23 -31 q16 -14.5 46 -30 q30 -15.5 78 -34.5 q46 -19 76 -37.5 q30 -18.5 48 -39.5 q18 -21 25.5 -44.5 q7.5 -23.5 7.5 -52.5 q0 -31 -10.5 -61.5 q-10.5 -30.5 -33 -55.5 q-22.5 -25 -57 -42 q-34.5 -17 -82.5 -21 l-4 -37 l16 -1 q68 -5 68 -55 q0 -28 -28.5 -51 q-28.5 -23 -87.5 -23 q-59 0 -111 37 l25 42 q43 -36 99 -36 q26 0 36 7.5 q10 7.5 10 17.5 Z" /><glyph glyph-name="scedilla" unicode="&#x15f;" d="M301 -109 q0 24 -47 24 l-30 0 l10 75 q-105 4 -177 72 l41 72 q3 -3 4 -9.5 q1 -6.5 7 -15.5 q6 -9 22 -20.5 q16 -11.5 49 -25.5 q15 -7 34 -10 q19 -3 38 -3 q20 0 40.5 5 q20.5 5 37 14.5 q16.5 9.5 26.5 23 q10 13.5 10 30.5 q0 26 -24 44 q-24 18 -88 37 q-44 13 -58 18 q-36 14 -52 24.5 q-16 10.5 -29 25 q-13 14.5 -21 33 q-8 18.5 -8 40.5 q0 24 13 46 q13 22 36.5 39 q23.5 17 56 27.5 q32.5 10.5 70.5 10.5 q105 0 170 -72 l-42 -63 q-5 1 -5 8 q0 7 -2 10 q-18 23 -51 42.5 q-33 19.5 -75 19.5 q-19 0 -36.5 -4.5 q-17.5 -4.5 -31 -12.5 q-13.5 -8 -21.5 -20.5 q-8 -12.5 -8 -28.5 q0 -12 6 -21.5 q6 -9.5 19 -18.5 q13 -9 36.5 -18 q23.5 -9 61.5 -20 q86 -23 121.5 -55 q35.5 -32 35.5 -82 q0 -25 -11 -49 q-11 -24 -32 -43 q-21 -19 -51 -32 q-30 -13 -68 -17 l-4 -38 l16 -1 q68 -5 68 -55 q0 -28 -28.5 -51 q-28.5 -23 -87.5 -23 q-59 0 -111 37 l25 42 q43 -36 100 -36 q25 0 35 7.5 q10 7.5 10 17.5 Z" /><glyph glyph-name="Tcedilla" unicode="&#x162;" d="M289 -109 q0 24 -47 24 l-30 0 l11 84 l-15 0 l0 562 l-177 0 l0 63 l432 0 l0 -63 l-184 0 l0 -562 l-12 0 l-6 -46 l17 -1 q68 -5 68 -55 q0 -28 -28.5 -51 q-28.5 -23 -87.5 -23 q-59 0 -111 37 l25 42 q43 -36 99 -36 q26 0 36 7.5 q10 7.5 10 17.5 Z" /><glyph glyph-name="tcedilla" unicode="&#x163;" d="M344 -109 q0 24 -47 24 l-29 0 l10 78 q-32 4 -53 15.5 q-21 11.5 -34 35 q-13 23.5 -18.5 59.5 q-5.5 36 -5.5 90 q0 42 2.5 93.5 q2.5 51.5 7.5 111.5 l-107 0 l0 59 l110 0 l8 122 l79 13 q0 -9 -2.5 -16 q-2.5 -7 -3.5 -11 l-12 -108 l150 0 l0 -59 l-150 0 q-9 -89 -9 -167 q0 -48 2 -81 q2 -33 10.5 -53.5 q8.5 -20.5 24.5 -29.5 q16 -9 43 -9 q46 0 102 41 l22 -57 q-58 -41 -123 -49 l-4 -40 l16 -1 q68 -5 68 -55 q0 -28 -28.5 -51 q-28.5 -23 -87.5 -23 q-59 0 -111 37 l25 42 q43 -36 100 -36 q25 0 35 7.5 q10 7.5 10 17.5 Z" /><glyph glyph-name="florin" unicode="&#x192;" d="M480 620 l-33 -66 q-8 0 -9 10 q-4 23 -25 37.5 q-21 14.5 -44 14.5 q-19 0 -33.5 -6.5 q-14.5 -6.5 -25.5 -23 q-11 -16.5 -18.5 -46 q-7.5 -29.5 -10.5 -75.5 l-6 -82 l123 0 l0 -57 l-128 0 l-24 -302 q-5 -55 -18 -93 q-13 -38 -32 -61.5 q-19 -23.5 -43.5 -34 q-24.5 -10.5 -52.5 -10.5 q-49 0 -82 35 l41 64 q3 -1 6.5 -6 q3.5 -5 8 -11 q4.5 -6 13.5 -10.5 q9 -4.5 22 -4.5 q28 0 46.5 34 q18.5 34 23.5 101 l22 299 l-121 0 l0 57 l125 0 l7 92 q8 103 49 150.5 q41 47.5 107 47.5 q68 0 112 -53 Z" /><glyph glyph-name="dotlessj" unicode="&#x237;" d="M126 457 l243 0 l0 -435 q0 -52 -14 -88.5 q-14 -36.5 -38.5 -59.5 q-24.5 -23 -57.5 -34.5 q-33 -11.5 -71 -13.5 q-88 0 -140 64 l47 62 q5 -5 5.5 -10 q0.5 -5 3.5 -11 q3 -6 12 -13.5 q9 -7.5 30 -18.5 q22 -11 47 -11 q45 0 74 30.5 q29 30.5 29 99.5 l0 380 l-170 0 l0 59 Z" /><glyph glyph-name="circumflex" unicode="&#x2c6;" d="M134 545 l111 140 l22 0 l110 -141 l-46 -35 l-78 103 l-81 -102 l-38 35 Z" /><glyph glyph-name="caron" unicode="&#x2c7;" d="M377 658 l-111 -140 l-22 0 l-110 141 l46 35 l78 -103 l81 102 l38 -35 Z" /><glyph glyph-name="uni02C9" unicode="&#x2c9;" d="M123 621 l254 0 l0 -56 l-254 0 l0 56 Z" /><glyph glyph-name="uni02CB" unicode="&#x2cb;" d="M243 699 l88 -147 l-50 -30 l-101 135 l63 42 Z" /><glyph glyph-name="breve" unicode="&#x2d8;" d="M137 646 q19 -30 48.5 -50 q29.5 -20 64.5 -20 q64 0 119 70 l28 -42 q-27 -36 -65.5 -58 q-38.5 -22 -80.5 -22 q-85 0 -150 77 l36 45 Z" /><glyph glyph-name="dotaccent" unicode="&#x2d9;" d="M218 641 q15 15 36 15 q21 0 36.5 -15.5 q15.5 -15.5 15.5 -36.5 q0 -21 -15.5 -36 q-15.5 -15 -36.5 -15 q-21 0 -36 15 q-15 15 -15 36 q0 22 15 37 Z" /><glyph glyph-name="ring" unicode="&#x2da;" d="M321 667 q27 -27 27 -62 q0 -18 -7.5 -34 q-7.5 -16 -20 -28 q-12.5 -12 -29.5 -19 q-17 -7 -35 -7 q-18 0 -34.5 7 q-16.5 7 -29 19 q-12.5 12 -20 28 q-7.5 16 -7.5 34 q0 18 7.5 34 q7.5 16 20 28 q12.5 12 29 19 q16.5 7 34.5 7 q37 0 65 -26 ZM257 652 q-17 0 -29 -13.5 q-12 -13.5 -12 -32.5 q0 -19 12 -32.5 q12 -13.5 29 -13.5 q17 0 29.5 13.5 q12.5 13.5 12.5 32.5 q0 19 -12.5 32.5 q-12.5 13.5 -29.5 13.5 Z" /><glyph glyph-name="ogonek" unicode="&#x2db;" d="M356 0 l66 0 q-84 -75 -84 -102 q0 -12 8 -20 q8 -8 20 -8 q29 0 58 23 l0 -46 q-28 -23 -67 -23 q-40 0 -60.5 17.5 q-20.5 17.5 -20.5 43.5 q0 50 80 115 Z" /><glyph glyph-name="tilde" unicode="&#x2dc;" d="M135 557 l-44 32 q54 87 113 87 q18 0 38.5 -11.5 q20.5 -11.5 36.5 -26 q16 -14.5 29.5 -26 q13.5 -11.5 20.5 -11.5 q12 0 20.5 4 q8.5 4 15 11.5 q6.5 7.5 12.5 17 q6 9.5 15 20.5 l37 -40 q-30 -36 -51.5 -53.5 q-21.5 -17.5 -44.5 -17.5 q-23 0 -41.5 12 q-18.5 12 -32.5 26 q-14 14 -28 26 q-14 12 -26 12 q-22 0 -35 -13.5 q-13 -13.5 -35 -48.5 Z" /><glyph glyph-name="hungarumlaut" unicode="&#x2dd;" d="M214 699 l63 -42 l-101 -135 l-50 30 l88 147 ZM369 699 l63 -42 l-101 -135 l-50 30 l88 147 Z" /><glyph glyph-name="quoteleft" unicode="&#x2018;" d="M182 450 q0 81 106 188 l35 -31 q-28 -25 -46.5 -55.5 q-18.5 -30.5 -18.5 -49.5 q0 -10 8 -18.5 q8 -8.5 17.5 -16.5 q9.5 -8 17.5 -18.5 q8 -10.5 8 -23.5 q0 -24 -16.5 -41 q-16.5 -17 -42.5 -17 q-26 0 -47 23 q-21 23 -21 60 Z" /><glyph glyph-name="quoteright" unicode="&#x2019;" d="M306 555 q0 -79 -107 -188 l-34 30 q28 26 46.5 56 q18.5 30 18.5 49 q0 10 -8 19 q-8 9 -18 17 q-10 8 -17.5 18 q-7.5 10 -7.5 23 q0 25 16.5 42 q16.5 17 42.5 17 q26 0 47 -23 q21 -23 21 -60 Z" /><glyph glyph-name="quotesinglbase" unicode="&#x201a;" d="M306 20 q0 -79 -107 -188 l-34 30 q28 26 46.5 56 q18.5 30 18.5 49 q0 10 -8 18.5 q-8 8.5 -17.5 16.5 q-9.5 8 -17.5 18.5 q-8 10.5 -8 23.5 q0 25 16.5 42 q16.5 17 42.5 17 q26 0 47 -23 q21 -23 21 -60 Z" /><glyph glyph-name="quotedblleft" unicode="&#x201c;" d="M286 450 q0 81 106 188 l34 -31 q-28 -25 -46.5 -55.5 q-18.5 -30.5 -18.5 -49.5 q0 -10 8 -18 q8 -8 18.5 -16.5 q10.5 -8.5 18 -19 q7.5 -10.5 7.5 -23.5 q0 -24 -17 -41 q-17 -17 -43 -17 q-26 0 -46.5 23 q-20.5 23 -20.5 60 ZM79 450 q0 81 106 188 l34 -31 q-28 -25 -46.5 -55.5 q-18.5 -30.5 -18.5 -49.5 q0 -10 8 -18 q8 -8 18.5 -16.5 q10.5 -8.5 18 -19 q7.5 -10.5 7.5 -23.5 q0 -24 -17 -41 q-17 -17 -43 -17 q-26 0 -46.5 23 q-20.5 23 -20.5 60 Z" /><glyph glyph-name="quotedblright" unicode="&#x201d;" d="M202 555 q0 -81 -106 -188 l-35 30 q29 26 47 56 q18 30 18 49 q0 10 -8.5 19 q-8.5 9 -17.5 17.5 q-9 8.5 -17 18 q-8 9.5 -8 22.5 q0 25 16.5 42 q16.5 17 42.5 17 q27 0 47.5 -23 q20.5 -23 20.5 -60 ZM409 555 q0 -81 -106 -188 l-35 30 q29 26 47 56 q18 30 18 49 q0 10 -7.5 19 q-7.5 9 -17.5 17.5 q-10 8.5 -18 18 q-8 9.5 -8 22.5 q0 25 16.5 42 q16.5 17 42.5 17 q27 0 47.5 -23 q20.5 -23 20.5 -60 Z" /><glyph glyph-name="quotedblbase" unicode="&#x201e;" d="M409 20 q0 -81 -106 -188 l-35 30 q29 26 47 56 q18 30 18 49 q0 10 -8 18.5 q-8 8.5 -17.5 16.5 q-9.5 8 -17.5 18.5 q-8 10.5 -8 23.5 q0 25 16.5 42 q16.5 17 42.5 17 q27 0 47.5 -23 q20.5 -23 20.5 -60 ZM202 20 q0 -81 -106 -188 l-35 30 q29 26 47 56 q18 30 18 49 q0 10 -8 18.5 q-8 8.5 -17.5 17.5 q-9.5 9 -17.5 18.5 q-8 9.5 -8 22.5 q0 25 16.5 42 q16.5 17 42.5 17 q27 0 47.5 -23 q20.5 -23 20.5 -60 Z" /><glyph glyph-name="dagger" unicode="&#x2020;" d="M217 652 l67 0 l0 -195 l166 0 l0 -60 l-166 0 l0 -548 l-67 0 l0 548 l-168 0 l0 60 l168 0 l0 195 Z" /><glyph glyph-name="daggerdbl" unicode="&#x2021;" d="M217 652 l67 0 l0 -195 l166 0 l0 -60 l-166 0 l0 -276 l166 0 l0 -60 l-166 0 l0 -212 l-67 0 l0 212 l-168 0 l0 60 l168 0 l0 276 l-168 0 l0 60 l168 0 l0 195 Z" /><glyph glyph-name="bullet" unicode="&#x2022;" d="M316 355 q25 -25 25 -59 q0 -34 -25 -58.5 q-25 -24.5 -60 -24.5 q-35 0 -60 24.5 q-25 24.5 -25 58.5 q0 35 25.5 59.5 q25.5 24.5 59.5 24.5 q33 0 60 -25 Z" /><glyph glyph-name="ellipsis" unicode="&#x2026;" d="M453 87 q17 -19 17 -41 q0 -23 -17 -40 q-17 -17 -42 -17 q-25 0 -42 16.5 q-17 16.5 -17 40.5 q0 24 18 41 q18 17 41 17 q23 0 42 -17 ZM108 87 q17 -19 17 -41 q0 -23 -17 -40 q-17 -17 -42 -17 q-26 0 -42.5 17 q-16.5 17 -16.5 40 q0 23 17.5 40.5 q17.5 17.5 41.5 17.5 q23 0 42 -17 ZM280 87 q18 -18 18 -41 q0 -23 -17.5 -40 q-17.5 -17 -42.5 -17 q-25 0 -42 16.5 q-17 16.5 -17 40.5 q0 24 18 41 q18 17 41 17 q23 0 42 -17 Z" /><glyph glyph-name="guilsinglleft" unicode="&#x2039;" d="M145 253 l152 147 l39 -41 l-121 -118 l128 -140 l-40 -40 l-158 169 l0 23 Z" /><glyph glyph-name="guilsinglright" unicode="&#x203a;" d="M343 253 l0 -23 l-158 -169 l-40 40 l128 140 l-121 118 l39 41 l152 -147 Z" /><glyph glyph-name="fraction" unicode="&#x2044;" d="M76 -16 l313 681 l48 -27 l-314 -680 l-47 26 Z" /><glyph glyph-name="uni2074" unicode="&#x2074;" d="M302 641 l39 0 l0 -245 l63 0 l0 -47 l-63 0 l0 -97 l-57 0 l0 98 l-182 0 l0 35 l200 256 ZM285 544 l-118 -148 l118 0 l0 148 Z" /><glyph glyph-name="Euro" unicode="&#x20ac;" d="M464 574 l-25 -68 q-3 2 -6.5 12.5 q-3.5 10.5 -16.5 21.5 q-13 11 -34.5 21 q-21.5 10 -56.5 10 q-56 0 -102.5 -38 q-46.5 -38 -63.5 -119 l247 0 l-22 -58 l-234 0 q-2 -17 -2 -31 q0 -14 0 -25 l0 -24 l206 0 l-23 -58 l-177 0 q14 -83 61 -126 q47 -43 112 -43 q61 0 107 41 l29 -50 q-59 -51 -140 -51 q-44 0 -83 14.5 q-39 14.5 -69.5 43.5 q-30.5 29 -51.5 71.5 q-21 42.5 -28 99.5 l-58 0 l13 58 l40 0 q0 5 -0.5 10.5 q-0.5 5.5 -0.5 11.5 q0 29 3 58 l-55 0 l13 58 l51 0 q12 58 36.5 99 q24.5 41 55.5 66.5 q31 25.5 67.5 37 q36.5 11.5 72.5 11.5 q82 0 135 -54 Z" /><glyph glyph-name="trademark" unicode="&#x2122;" d="M239 635 l0 -40 l-90 0 l0 -275 l-45 0 l0 275 l-86 0 l0 40 l221 0 ZM303 635 l72 -145 l75 145 l33 0 l0 -315 l-42 0 l0 215 l-60 -108 l-16 1 l-55 107 l0 -215 l-42 0 l0 315 l35 0 Z" /><glyph glyph-name="uparrow" unicode="&#x2191;" d="M59 404 l187 236 l22 0 l173 -238 l-50 -33 l-106 143 l0 -546 l-67 0 l0 547 l-116 -144 l-43 35 Z" /><glyph glyph-name="downarrow" unicode="&#x2193;" d="M441 203 l-187 -237 l-22 0 l-173 239 l50 33 l106 -144 l0 546 l66 0 l0 -546 l117 144 l43 -35 Z" /><glyph glyph-name="minus" unicode="&#x2212;" d="M45 343 l411 0 l0 -61 l-411 0 l0 61 Z" /><glyph glyph-name="visiblespace" unicode="&#x2423;" d="M48 70 l47 0 l0 -91 l309 0 l0 91 l48 0 l0 -136 l-404 0 l0 136 Z" /><glyph glyph-name="grave" unicode="`" d="M164 579 l-25 67 l52 25 l26 -66 q12 -31 28.5 -48.5 q16.5 -17.5 29.5 -30 q13 -12.5 22.5 -26 q9.5 -13.5 9.5 -29.5 q-1 -20 -14 -28.5 q-13 -8.5 -24 -8.5 q-11 0 -20 3.5 q-9 3.5 -22.5 16 q-13.5 12.5 -28.5 42 q-15 29.5 -34 83.5 Z" /><glyph glyph-name="afii57929" unicode="&#x2bc;" d="M309 605 q0 -65 -85 -151 l-28 24 q23 21 37.5 45.5 q14.5 24.5 14.5 39.5 q0 7 -6.5 14 q-6.5 7 -14 13.5 q-7.5 6.5 -14 14.5 q-6.5 8 -6.5 19 q0 20 13.5 33.5 q13.5 13.5 34.5 13.5 q21 0 37.5 -18.5 q16.5 -18.5 16.5 -47.5 Z" /><glyph glyph-name="Apostrophe" unicode="&#xf40a;" d="M309 562 q0 -66 -85 -151 l-28 24 q23 21 37.5 45.5 q14.5 24.5 14.5 38.5 q0 8 -6.5 15 q-6.5 7 -14 14 q-7.5 7 -14 15 q-6.5 8 -6.5 18 q0 20 13.5 33.5 q13.5 13.5 34.5 13.5 q21 0 37.5 -18.5 q16.5 -18.5 16.5 -47.5 Z" /></font>
</defs>
</svg>
